{
  "accessors": [
    {
      "bufferView": 1,
      "componentType": 5126,
      "count": 456,
      "max": [
        30.322010040283203,
        34.15972900390625,
        62.536643981933594
      ],
      "min": [
        -14.194426536560059,
        -33.970645904541016,
        35.23753356933594
      ],
      "type": "VEC3"
    },
    {
      "bufferView": 1,
      "byteOffset": 5472,
      "componentType": 5126,
      "count": 456,
      "max": [
        0.9983312487602234,
        0.9966106414794922,
        0.9999334216117859
      ],
      "min": [
        -0.9834291934967041,
        -0.9950573444366455,
        -0.9999268651008606
      ],
      "type": "VEC3"
    },
    {
      "bufferView": 0,
      "componentType": 5125,
      "count": 2628,
      "type": "SCALAR"
    },
    {
      "bufferView": 1,
      "byteOffset": 10944,
      "componentType": 5126,
      "count": 993,
      "max": [
        34.274803161621094,
        34.2757682800293,
        62.97806167602539
      ],
      "min": [
        -34.27410888671875,
        -34.27314758300781,
        0.0009891376830637455
      ],
      "type": "VEC3"
    },
    {
      "bufferView": 1,
      "byteOffset": 22860,
      "componentType": 5126,
      "count": 993,
      "max": [
        0.9852119088172913,
        0.9852118492126465,
        1.0
      ],
      "min": [
        -0.9945082068443298,
        -0.9852118492126465,
        -1.0
      ],
      "type": "VEC3"
    },
    {
      "bufferView": 0,
      "byteOffset": 10512,
      "componentType": 5125,
      "count": 3516,
      "type": "SCALAR"
    }
  ],
  "asset": {
    "extras": {
      "author": "fwild (https://sketchfab.com/fwild)",
      "license": "CC-BY-4.0 (http://creativecommons.org/licenses/by/4.0/)",
      "source": "https://sketchfab.com/3d-models/bucket-2-bzb23-9321d85603fa46a2b8387d42df98daf7",
      "title": "Bucket (2) bzb23"
    },
    "generator": "Sketchfab-15.26.0",
    "version": "2.0"
  },
  "bufferViews": [
    {
      "buffer": 0,
      "byteLength": 24576,
      "name": "floatBufferViews",
      "target": 34963
    },
    {
      "buffer": 0,
      "byteLength": 34776,
      "byteOffset": 24576,
      "byteStride": 12,
      "name": "floatBufferViews",
      "target": 34962
    }
  ],
  "buffers": [
    {
      "byteLength": 59352,
      "uri": "scene.bin"
    }
  ],
  "materials": [
    {
      "name": "metal",
      "pbrMetallicRoughness": {
        "baseColorFactor": [
          0.5,
          0.5,
          0.5,
          1.0
        ],
        "metallicFactor": 0.71,
        "roughnessFactor": 0.52
      }
    },
    {
      "name": "plastic",
      "pbrMetallicRoughness": {
        "baseColorFactor": [
          0.00715504,
          0.00715504,
          0.00715504,
          1.0
        ],
        "metallicFactor": 0.0,
        "roughnessFactor": 0.12
      }
    }
  ],
  "meshes": [
    {
      "name": "Object_0",
      "primitives": [
        {
          "attributes": {
            "NORMAL": 1,
            "POSITION": 0
          },
          "indices": 2,
          "material": 0,
          "mode": 4
        }
      ]
    },
    {
      "name": "Object_1",
      "primitives": [
        {
          "attributes": {
            "NORMAL": 4,
            "POSITION": 3
          },
          "indices": 5,
          "material": 1,
          "mode": 4
        }
      ]
    }
  ],
  "nodes": [
    {
      "children": [
        1
      ],
      "matrix": [
        1.0,
        0.0,
        0.0,
        0.0,
        0.0,
        2.220446049250313e-16,
        -1.0,
        0.0,
        0.0,
        1.0,
        2.220446049250313e-16,
        0.0,
        0.0,
        0.0,
        0.0,
        1.0
      ],
      "name": "Sketchfab_model"
    },
    {
      "children": [
        2
      ],
      "name": "root"
    },
    {
      "children": [
        3
      ],
      "matrix": [
        1.0,
        0.0,
        0.0,
        0.0,
        0.0,
        2.220446049250313e-16,
        1.0,
        0.0,
        0.0,
        -1.0,
        2.220446049250313e-16,
        0.0,
        0.0,
        0.0,
        0.0,
        1.0
      ],
      "name": "GLTF_SceneRootNode"
    },
    {
      "children": [
        4
      ],
      "matrix": [
        0.170828714966774,
        0.0,
        0.0,
        0.0,
        0.0,
        0.0,
        -0.170828714966774,
        0.0,
        0.0,
        0.170828714966774,
        0.0,
        0.0,
        -0.0017806325340643525,
        0.0008041175897233188,
        0.0034213392063975334,
        1.0
      ],
      "name": "_1"
    },
    {
      "children": [
        5,
        6
      ],
      "matrix": [
        0.02539999969303608,
        0.0,
        0.0,
        0.0,
        0.0,
        0.02539999969303608,
        0.0,
        0.0,
        0.0,
        0.0,
        0.02539999969303608,
        0.0,
        0.0,
        0.0,
        0.0,
        1.0
      ],
      "name": "Bucket_0"
    },
    {
      "mesh": 0,
      "name": "Object_5"
    },
    {
      "mesh": 1,
      "name": "Object_6"
    }
  ],
  "scene": 0,
  "scenes": [
    {
      "name": "Sketchfab_Scene",
      "nodes": [
        0
      ]
    }
  ]
}
