<svg width="1000" height="1000" viewBox="0 0 1000 1000" fill="none" xmlns="http://www.w3.org/2000/svg">
<rect x="333.334" y="980.393" width="332.611" height="19.6078" fill="#0DA4AC"/>
<rect x="333.334" width="332.611" height="19.6078" fill="#0DA4AC"/>
<path d="M333.333 882.353L647.059 490.202H666.667L333.333 1000V882.353Z" fill="#0DA4AC"/>
<path d="M333.333 882.353L19.6078 490.196L0 490.196L333.333 1000V882.353Z" fill="#0DA4AC"/>
<path d="M19.6074 470.588H352.941V490.196H19.6074V470.588Z" fill="#0DA4AC"/>
<rect x="647.059" y="470.588" width="333.333" height="19.6078" fill="#0DA4AC"/>
<path d="M666.667 882.353L980.393 490.202H1000L666.667 1000V882.353Z" fill="#00DFC8"/>
<path d="M666.667 882.353L352.942 490.196L333.334 490.196L666.667 1000V882.353Z" fill="#00DFC8"/>
<path d="M333.333 0L0 490.196H19.6078L333.333 29.4118L647.059 490.196H666.667L333.333 0Z" fill="#0DA4AC"/>
<path d="M666.667 0L333.334 490.196H352.942L666.667 29.4118L980.393 490.196H1000L666.667 0Z" fill="#0DA4AC"/>
</svg>
