{
  "accessors": [
    {
      "bufferView": 2,
      "componentType": 5126,
      "count": 1980,
      "max": [
        14.011215209960938,
        13.677630424499512,
        4.862819194793701
      ],
      "min": [
        -13.596540451049805,
        -14.026432037353516,
        -4.920050621032715
      ],
      "type": "VEC3"
    },
    {
      "bufferView": 2,
      "byteOffset": 23760,
      "componentType": 5126,
      "count": 1980,
      "max": [
        0.9931007623672485,
        0.9994035363197327,
        0.9998396635055542
      ],
      "min": [
        -0.9949633479118347,
        -0.9996232390403748,
        -0.9999493360519409
      ],
      "type": "VEC3"
    },
    {
      "bufferView": 1,
      "componentType": 5126,
      "count": 1980,
      "max": [
        0.987221896648407,
        0.8631576299667358
      ],
      "min": [
        0.009185370989143848,
        0.1847754716873169
      ],
      "type": "VEC2"
    },
    {
      "bufferView": 0,
      "componentType": 5125,
      "count": 7788,
      "type": "SCALAR"
    },
    {
      "bufferView": 2,
      "byteOffset": 47520,
      "componentType": 5126,
      "count": 669,
      "max": [
        19.89620018005371,
        20.2031307220459,
        1.4721803665161133
      ],
      "min": [
        -19.89620018005371,
        -20.2031307220459,
        0.0
      ],
      "type": "VEC3"
    },
    {
      "bufferView": 2,
      "byteOffset": 55548,
      "componentType": 5126,
      "count": 669,
      "max": [
        0.9848077893257141,
        1.0,
        1.0
      ],
      "min": [
        -0.9848078489303589,
        -1.0,
        -1.0
      ],
      "type": "VEC3"
    },
    {
      "bufferView": 1,
      "byteOffset": 15840,
      "componentType": 5126,
      "count": 669,
      "max": [
        0.1491948366165161,
        0.17354506254196167
      ],
      "min": [
        0.011909964494407177,
        0.00952380895614624
      ],
      "type": "VEC2"
    },
    {
      "bufferView": 0,
      "byteOffset": 31152,
      "componentType": 5125,
      "count": 1437,
      "type": "SCALAR"
    },
    {
      "bufferView": 2,
      "byteOffset": 63576,
      "componentType": 5126,
      "count": 669,
      "max": [
        19.89620018005371,
        20.2031307220459,
        1.4721803665161133
      ],
      "min": [
        -19.89620018005371,
        -20.2031307220459,
        0.0
      ],
      "type": "VEC3"
    },
    {
      "bufferView": 2,
      "byteOffset": 71604,
      "componentType": 5126,
      "count": 669,
      "max": [
        0.9848077893257141,
        1.0,
        1.0
      ],
      "min": [
        -0.9848078489303589,
        -1.0,
        -1.0
      ],
      "type": "VEC3"
    },
    {
      "bufferView": 1,
      "byteOffset": 21192,
      "componentType": 5126,
      "count": 669,
      "max": [
        0.1491948366165161,
        0.17354506254196167
      ],
      "min": [
        0.011909964494407177,
        0.00952380895614624
      ],
      "type": "VEC2"
    },
    {
      "bufferView": 0,
      "byteOffset": 36900,
      "componentType": 5125,
      "count": 1437,
      "type": "SCALAR"
    }
  ],
  "asset": {
    "extras": {
      "author": "fwild (https://sketchfab.com/fwild)",
      "license": "CC-BY-4.0 (http://creativecommons.org/licenses/by/4.0/)",
      "source": "https://sketchfab.com/3d-models/masons-cord-bzb23-01588b7852ba43f19b3349a77a56470d",
      "title": "Masons Cord bzb23"
    },
    "generator": "Sketchfab-15.26.0",
    "version": "2.0"
  },
  "bufferViews": [
    {
      "buffer": 0,
      "byteLength": 42648,
      "name": "floatBufferViews",
      "target": 34963
    },
    {
      "buffer": 0,
      "byteLength": 26544,
      "byteOffset": 42648,
      "byteStride": 8,
      "name": "floatBufferViews",
      "target": 34962
    },
    {
      "buffer": 0,
      "byteLength": 79632,
      "byteOffset": 69192,
      "byteStride": 12,
      "name": "floatBufferViews",
      "target": 34962
    }
  ],
  "buffers": [
    {
      "byteLength": 148824,
      "uri": "scene.bin"
    }
  ],
  "extensionsUsed": [
    "KHR_materials_specular"
  ],
  "images": [
    {
      "uri": "textures/M_01___Default_baseColor.png"
    },
    {
      "uri": "textures/M_01___Default_specularf0.png"
    }
  ],
  "materials": [
    {
      "extensions": {
        "KHR_materials_specular": {
          "specularColorFactor": [
            1.0,
            1.0,
            1.0
          ],
          "specularFactor": 1.0,
          "specularTexture": {
            "index": 1
          }
        }
      },
      "name": "M_01___Default",
      "pbrMetallicRoughness": {
        "baseColorFactor": [
          0.5,
          0.5,
          0.5,
          1.0
        ],
        "baseColorTexture": {
          "index": 0
        },
        "metallicFactor": 0.0,
        "roughnessFactor": 0.0
      }
    }
  ],
  "meshes": [
    {
      "name": "Object_0",
      "primitives": [
        {
          "attributes": {
            "NORMAL": 1,
            "POSITION": 0,
            "TEXCOORD_0": 2
          },
          "indices": 3,
          "material": 0,
          "mode": 4
        }
      ]
    },
    {
      "name": "Object_1",
      "primitives": [
        {
          "attributes": {
            "NORMAL": 5,
            "POSITION": 4,
            "TEXCOORD_0": 6
          },
          "indices": 7,
          "material": 0,
          "mode": 4
        }
      ]
    },
    {
      "name": "Object_2",
      "primitives": [
        {
          "attributes": {
            "NORMAL": 9,
            "POSITION": 8,
            "TEXCOORD_0": 10
          },
          "indices": 11,
          "material": 0,
          "mode": 4
        }
      ]
    }
  ],
  "nodes": [
    {
      "children": [
        1
      ],
      "matrix": [
        1.0,
        0.0,
        0.0,
        0.0,
        0.0,
        2.220446049250313e-16,
        -1.0,
        0.0,
        0.0,
        1.0,
        2.220446049250313e-16,
        0.0,
        0.0,
        0.0,
        0.0,
        1.0
      ],
      "name": "Sketchfab_model"
    },
    {
      "children": [
        2
      ],
      "name": "root"
    },
    {
      "children": [
        3,
        6,
        9
      ],
      "matrix": [
        1.0,
        0.0,
        0.0,
        0.0,
        0.0,
        2.220446049250313e-16,
        1.0,
        0.0,
        0.0,
        -1.0,
        2.220446049250313e-16,
        0.0,
        0.0,
        0.0,
        0.0,
        1.0
      ],
      "name": "GLTF_SceneRootNode"
    },
    {
      "children": [
        4
      ],
      "matrix": [
        0.06428619474172592,
        0.0,
        0.0812649205327034,
        0.0,
        0.0812649205327034,
        0.0,
        -0.06428619474172592,
        0.0,
        0.0,
        0.2796815037727356,
        0.0,
        0.0,
        0.0021048050839453936,
        0.04171872138977051,
        -0.00019691041961777955,
        1.0
      ],
      "name": "_1"
    },
    {
      "children": [
        5
      ],
      "matrix": [
        0.02539999969303608,
        0.0,
        0.0,
        0.0,
        0.0,
        0.02539999969303608,
        0.0,
        0.0,
        0.0,
        0.0,
        0.02539999969303608,
        0.0,
        0.0,
        0.0,
        0.0,
        1.0
      ],
      "name": "Rope_0"
    },
    {
      "mesh": 0,
      "name": "Object_5"
    },
    {
      "children": [
        7
      ],
      "matrix": [
        0.06189101189374924,
        0.0,
        0.0782371386885643,
        0.0,
        0.0782371386885643,
        0.0,
        -0.06189101189374924,
        0.0,
        0.0,
        0.09975747019052505,
        0.0,
        0.0,
        0.0016953577287495136,
        0.07448682934045792,
        0.0002850759483408183,
        1.0
      ],
      "name": "_3"
    },
    {
      "children": [
        8
      ],
      "matrix": [
        0.02539999969303608,
        0.0,
        0.0,
        0.0,
        0.0,
        0.02539999969303608,
        0.0,
        0.0,
        0.0,
        0.0,
        0.02539999969303608,
        0.0,
        0.0,
        0.0,
        0.0,
        1.0
      ],
      "name": "Top_2"
    },
    {
      "mesh": 1,
      "name": "Object_8"
    },
    {
      "children": [
        10
      ],
      "matrix": [
        0.06189100444316864,
        0.0,
        0.0782371461391449,
        0.0,
        0.0782371461391449,
        0.0,
        -0.06189100444316864,
        0.0,
        -0.0,
        -0.09975747019052505,
        0.0,
        0.0,
        0.0016953609883785248,
        0.008861038833856583,
        0.0002850733872037381,
        1.0
      ],
      "name": "_5"
    },
    {
      "children": [
        11
      ],
      "matrix": [
        0.02539999969303608,
        0.0,
        0.0,
        0.0,
        0.0,
        0.02539999969303608,
        0.0,
        0.0,
        0.0,
        0.0,
        0.02539999969303608,
        0.0,
        0.0,
        0.0,
        0.0,
        1.0
      ],
      "name": "Top_4"
    },
    {
      "mesh": 2,
      "name": "Object_11"
    }
  ],
  "samplers": [
    {
      "magFilter": 9729,
      "minFilter": 9729,
      "wrapS": 10497,
      "wrapT": 10497
    },
    {
      "magFilter": 9729,
      "minFilter": 9987,
      "wrapS": 10497,
      "wrapT": 10497
    }
  ],
  "scene": 0,
  "scenes": [
    {
      "name": "Sketchfab_Scene",
      "nodes": [
        0
      ]
    }
  ],
  "textures": [
    {
      "sampler": 0,
      "source": 0
    },
    {
      "sampler": 1,
      "source": 1
    }
  ]
}
