{
  "accessors": [
    {
      "bufferView": 2,
      "componentType": 5126,
      "count": 24,
      "max": [
        0.21695250272750854,
        1.9685039520263672,
        0.07874015718698502
      ],
      "min": [
        -0.19685038924217224,
        -2.448528528213501,
        0.0
      ],
      "type": "VEC3"
    },
    {
      "bufferView": 2,
      "byteOffset": 288,
      "componentType": 5126,
      "count": 24,
      "max": [
        0.9999897480010986,
        1.0,
        1.0
      ],
      "min": [
        -0.9999897480010986,
        -1.0,
        -1.0
      ],
      "type": "VEC3"
    },
    {
      "bufferView": 1,
      "componentType": 5126,
      "count": 24,
      "max": [
        1.0445141792297363,
        0.9994999766349792
      ],
      "min": [
        0.0005000000237487257,
        0.003614664077758789
      ],
      "type": "VEC2"
    },
    {
      "bufferView": 0,
      "componentType": 5125,
      "count": 36,
      "type": "SCALAR"
    },
    {
      "bufferView": 2,
      "byteOffset": 576,
      "componentType": 5126,
      "count": 24,
      "max": [
        0.19685038924217224,
        2.453110694885254,
        0.07874015718698502
      ],
      "min": [
        -0.2145066261291504,
        -1.9685039520263672,
        0.0
      ],
      "type": "VEC3"
    },
    {
      "bufferView": 2,
      "byteOffset": 864,
      "componentType": 5126,
      "count": 24,
      "max": [
        0.9999920129776001,
        1.0,
        1.0
      ],
      "min": [
        -0.9999920129776001,
        -1.0,
        -1.0
      ],
      "type": "VEC3"
    },
    {
      "bufferView": 1,
      "byteOffset": 192,
      "componentType": 5126,
      "count": 24,
      "max": [
        1.036575436592102,
        0.9994999766349792
      ],
      "min": [
        0.0005000000237487257,
        0.18668341636657715
      ],
      "type": "VEC2"
    },
    {
      "bufferView": 0,
      "byteOffset": 144,
      "componentType": 5125,
      "count": 36,
      "type": "SCALAR"
    },
    {
      "bufferView": 2,
      "byteOffset": 1152,
      "componentType": 5126,
      "count": 24,
      "max": [
        0.19685038924217224,
        2.4530680179595947,
        0.07874015718698502
      ],
      "min": [
        -0.21564161777496338,
        -1.9685039520263672,
        0.0
      ],
      "type": "VEC3"
    },
    {
      "bufferView": 2,
      "byteOffset": 1440,
      "componentType": 5126,
      "count": 24,
      "max": [
        0.9999910593032837,
        1.0,
        1.0
      ],
      "min": [
        -0.9999910593032837,
        -1.0,
        -1.0
      ],
      "type": "VEC3"
    },
    {
      "bufferView": 1,
      "byteOffset": 384,
      "componentType": 5126,
      "count": 24,
      "max": [
        1.0535171031951904,
        0.9994999766349792
      ],
      "min": [
        0.0005000000237487257,
        0.3718686103820801
      ],
      "type": "VEC2"
    },
    {
      "bufferView": 0,
      "byteOffset": 288,
      "componentType": 5125,
      "count": 36,
      "type": "SCALAR"
    },
    {
      "bufferView": 2,
      "byteOffset": 1728,
      "componentType": 5126,
      "count": 24,
      "max": [
        0.19685038924217224,
        2.453002691268921,
        0.07874015718698502
      ],
      "min": [
        -0.21725648641586304,
        -1.9685039520263672,
        0.0
      ],
      "type": "VEC3"
    },
    {
      "bufferView": 2,
      "byteOffset": 2016,
      "componentType": 5126,
      "count": 24,
      "max": [
        0.9999894499778748,
        1.0,
        1.0
      ],
      "min": [
        -0.9999894499778748,
        -1.0,
        -1.0
      ],
      "type": "VEC3"
    },
    {
      "bufferView": 1,
      "byteOffset": 576,
      "componentType": 5126,
      "count": 24,
      "max": [
        1.0330560207366943,
        0.9994999766349792
      ],
      "min": [
        0.0005000000237487257,
        0.5559955835342407
      ],
      "type": "VEC2"
    },
    {
      "bufferView": 0,
      "byteOffset": 432,
      "componentType": 5125,
      "count": 36,
      "type": "SCALAR"
    },
    {
      "bufferView": 2,
      "byteOffset": 2304,
      "componentType": 5126,
      "count": 24,
      "max": [
        0.19685038924217224,
        2.453084945678711,
        0.07874015718698502
      ],
      "min": [
        -0.21519601345062256,
        -1.9685039520263672,
        0.0
      ],
      "type": "VEC3"
    },
    {
      "bufferView": 2,
      "byteOffset": 2592,
      "componentType": 5126,
      "count": 24,
      "max": [
        0.9999914169311523,
        1.0,
        1.0
      ],
      "min": [
        -0.9999914169311523,
        -1.0,
        -1.0
      ],
      "type": "VEC3"
    },
    {
      "bufferView": 1,
      "byteOffset": 768,
      "componentType": 5126,
      "count": 24,
      "max": [
        1.0306007862091064,
        0.9994999766349792
      ],
      "min": [
        0.0005000000237487257,
        0.7422389984130859
      ],
      "type": "VEC2"
    },
    {
      "bufferView": 0,
      "byteOffset": 576,
      "componentType": 5125,
      "count": 36,
      "type": "SCALAR"
    },
    {
      "bufferView": 2,
      "byteOffset": 2880,
      "componentType": 5126,
      "count": 38,
      "max": [
        0.04825844243168831,
        0.04752529039978981,
        0.43489256501197815
      ],
      "min": [
        -0.04534810408949852,
        -0.04752528667449951,
        0.0
      ],
      "type": "VEC3"
    },
    {
      "bufferView": 2,
      "byteOffset": 3336,
      "componentType": 5126,
      "count": 38,
      "max": [
        1.0,
        0.9848078489303589,
        1.0
      ],
      "min": [
        -0.9396927356719971,
        -0.9848078489303589,
        -1.0
      ],
      "type": "VEC3"
    },
    {
      "bufferView": 0,
      "byteOffset": 720,
      "componentType": 5125,
      "count": 108,
      "type": "SCALAR"
    },
    {
      "bufferView": 2,
      "byteOffset": 3792,
      "componentType": 5126,
      "count": 38,
      "max": [
        0.04825844243168831,
        0.04752529039978981,
        0.43489256501197815
      ],
      "min": [
        -0.04534810408949852,
        -0.04752528667449951,
        0.0
      ],
      "type": "VEC3"
    },
    {
      "bufferView": 2,
      "byteOffset": 4248,
      "componentType": 5126,
      "count": 38,
      "max": [
        1.0,
        0.9848078489303589,
        1.0
      ],
      "min": [
        -0.9396927356719971,
        -0.9848078489303589,
        -1.0
      ],
      "type": "VEC3"
    },
    {
      "bufferView": 0,
      "byteOffset": 1152,
      "componentType": 5125,
      "count": 108,
      "type": "SCALAR"
    },
    {
      "bufferView": 2,
      "byteOffset": 4704,
      "componentType": 5126,
      "count": 38,
      "max": [
        0.04825844243168831,
        0.04752529039978981,
        0.43489256501197815
      ],
      "min": [
        -0.04534810408949852,
        -0.04752528667449951,
        0.0
      ],
      "type": "VEC3"
    },
    {
      "bufferView": 2,
      "byteOffset": 5160,
      "componentType": 5126,
      "count": 38,
      "max": [
        1.0,
        0.9848078489303589,
        1.0
      ],
      "min": [
        -0.9396927356719971,
        -0.9848078489303589,
        -1.0
      ],
      "type": "VEC3"
    },
    {
      "bufferView": 0,
      "byteOffset": 1584,
      "componentType": 5125,
      "count": 108,
      "type": "SCALAR"
    },
    {
      "bufferView": 2,
      "byteOffset": 5616,
      "componentType": 5126,
      "count": 38,
      "max": [
        0.04825844243168831,
        0.04752529039978981,
        0.43489256501197815
      ],
      "min": [
        -0.04534810408949852,
        -0.04752528667449951,
        0.0
      ],
      "type": "VEC3"
    },
    {
      "bufferView": 2,
      "byteOffset": 6072,
      "componentType": 5126,
      "count": 38,
      "max": [
        1.0,
        0.9848078489303589,
        1.0
      ],
      "min": [
        -0.9396927356719971,
        -0.9848078489303589,
        -1.0
      ],
      "type": "VEC3"
    },
    {
      "bufferView": 0,
      "byteOffset": 2016,
      "componentType": 5125,
      "count": 108,
      "type": "SCALAR"
    },
    {
      "bufferView": 2,
      "byteOffset": 6528,
      "componentType": 5126,
      "count": 38,
      "max": [
        0.04825844243168831,
        0.04752529039978981,
        0.43489256501197815
      ],
      "min": [
        -0.04534810408949852,
        -0.04752528667449951,
        0.0
      ],
      "type": "VEC3"
    },
    {
      "bufferView": 2,
      "byteOffset": 6984,
      "componentType": 5126,
      "count": 38,
      "max": [
        1.0,
        0.9848078489303589,
        1.0
      ],
      "min": [
        -0.9396927356719971,
        -0.9848078489303589,
        -1.0
      ],
      "type": "VEC3"
    },
    {
      "bufferView": 0,
      "byteOffset": 2448,
      "componentType": 5125,
      "count": 108,
      "type": "SCALAR"
    }
  ],
  "asset": {
    "extras": {
      "author": "fwild (https://sketchfab.com/fwild)",
      "license": "CC-BY-4.0 (http://creativecommons.org/licenses/by/4.0/)",
      "source": "https://sketchfab.com/3d-models/folding-ruler-1-bzb23-aa9bed937e6c4e2191d403ec13775276",
      "title": "Folding Ruler (1) bzb23"
    },
    "generator": "Sketchfab-15.26.0",
    "version": "2.0"
  },
  "bufferViews": [
    {
      "buffer": 0,
      "byteLength": 2880,
      "name": "floatBufferViews",
      "target": 34963
    },
    {
      "buffer": 0,
      "byteLength": 960,
      "byteOffset": 2880,
      "byteStride": 8,
      "name": "floatBufferViews",
      "target": 34962
    },
    {
      "buffer": 0,
      "byteLength": 7440,
      "byteOffset": 3840,
      "byteStride": 12,
      "name": "floatBufferViews",
      "target": 34962
    }
  ],
  "buffers": [
    {
      "byteLength": 11280,
      "uri": "scene.bin"
    }
  ],
  "extensionsUsed": [
    "KHR_materials_specular"
  ],
  "images": [
    {
      "uri": "textures/Meter_baseColor.jpeg"
    },
    {
      "uri": "textures/Meter_specularf0.png"
    }
  ],
  "materials": [
    {
      "extensions": {
        "KHR_materials_specular": {
          "specularColorFactor": [
            1.0,
            1.0,
            1.0
          ],
          "specularFactor": 1.0,
          "specularTexture": {
            "index": 1
          }
        }
      },
      "name": "Meter",
      "pbrMetallicRoughness": {
        "baseColorFactor": [
          0.5,
          0.5,
          0.5,
          1.0
        ],
        "baseColorTexture": {
          "index": 0
        },
        "metallicFactor": 0.0,
        "roughnessFactor": 0.0
      }
    },
    {
      "name": "skrew",
      "pbrMetallicRoughness": {
        "baseColorFactor": [
          0.5,
          0.5,
          0.5,
          1.0
        ],
        "metallicFactor": 0.0,
        "roughnessFactor": 0.28
      }
    }
  ],
  "meshes": [
    {
      "name": "Object_0",
      "primitives": [
        {
          "attributes": {
            "NORMAL": 1,
            "POSITION": 0,
            "TEXCOORD_0": 2
          },
          "indices": 3,
          "material": 0,
          "mode": 4
        }
      ]
    },
    {
      "name": "Object_1",
      "primitives": [
        {
          "attributes": {
            "NORMAL": 5,
            "POSITION": 4,
            "TEXCOORD_0": 6
          },
          "indices": 7,
          "material": 0,
          "mode": 4
        }
      ]
    },
    {
      "name": "Object_2",
      "primitives": [
        {
          "attributes": {
            "NORMAL": 9,
            "POSITION": 8,
            "TEXCOORD_0": 10
          },
          "indices": 11,
          "material": 0,
          "mode": 4
        }
      ]
    },
    {
      "name": "Object_3",
      "primitives": [
        {
          "attributes": {
            "NORMAL": 13,
            "POSITION": 12,
            "TEXCOORD_0": 14
          },
          "indices": 15,
          "material": 0,
          "mode": 4
        }
      ]
    },
    {
      "name": "Object_4",
      "primitives": [
        {
          "attributes": {
            "NORMAL": 17,
            "POSITION": 16,
            "TEXCOORD_0": 18
          },
          "indices": 19,
          "material": 0,
          "mode": 4
        }
      ]
    },
    {
      "name": "Object_5",
      "primitives": [
        {
          "attributes": {
            "NORMAL": 21,
            "POSITION": 20
          },
          "indices": 22,
          "material": 1,
          "mode": 4
        }
      ]
    },
    {
      "name": "Object_6",
      "primitives": [
        {
          "attributes": {
            "NORMAL": 24,
            "POSITION": 23
          },
          "indices": 25,
          "material": 1,
          "mode": 4
        }
      ]
    },
    {
      "name": "Object_7",
      "primitives": [
        {
          "attributes": {
            "NORMAL": 27,
            "POSITION": 26
          },
          "indices": 28,
          "material": 1,
          "mode": 4
        }
      ]
    },
    {
      "name": "Object_8",
      "primitives": [
        {
          "attributes": {
            "NORMAL": 30,
            "POSITION": 29
          },
          "indices": 31,
          "material": 1,
          "mode": 4
        }
      ]
    },
    {
      "name": "Object_9",
      "primitives": [
        {
          "attributes": {
            "NORMAL": 33,
            "POSITION": 32
          },
          "indices": 34,
          "material": 1,
          "mode": 4
        }
      ]
    }
  ],
  "nodes": [
    {
      "children": [
        1
      ],
      "matrix": [
        1.0,
        0.0,
        0.0,
        0.0,
        0.0,
        2.220446049250313e-16,
        -1.0,
        0.0,
        0.0,
        1.0,
        2.220446049250313e-16,
        0.0,
        0.0,
        0.0,
        0.0,
        1.0
      ],
      "name": "Sketchfab_model"
    },
    {
      "children": [
        2
      ],
      "name": "root"
    },
    {
      "children": [
        3,
        6,
        9,
        12,
        15,
        18,
        21,
        24,
        27,
        30
      ],
      "matrix": [
        1.0,
        0.0,
        0.0,
        0.0,
        0.0,
        2.220446049250313e-16,
        1.0,
        0.0,
        0.0,
        -1.0,
        2.220446049250313e-16,
        0.0,
        0.0,
        0.0,
        0.0,
        1.0
      ],
      "name": "GLTF_SceneRootNode"
    },
    {
      "children": [
        4
      ],
      "matrix": [
        0.9999017715454102,
        0.0,
        0.01401654351502657,
        0.0,
        0.01401654351502657,
        0.0,
        -0.9999017715454102,
        0.0,
        0.0,
        1.0,
        0.0,
        0.0,
        -0.0015801445115357637,
        0.0,
        -0.08846205472946167,
        1.0
      ],
      "name": "_1"
    },
    {
      "children": [
        5
      ],
      "matrix": [
        0.02539999969303608,
        0.0,
        0.0,
        0.0,
        0.0,
        0.02539999969303608,
        0.0,
        0.0,
        0.0,
        0.0,
        0.02539999969303608,
        0.0,
        0.0,
        0.0,
        0.0,
        1.0
      ],
      "name": "0-10_0"
    },
    {
      "mesh": 0,
      "name": "Object_5"
    },
    {
      "children": [
        7
      ],
      "matrix": [
        -0.9999585747718811,
        0.0,
        -0.009105303324759007,
        0.0,
        -0.009105303324759007,
        0.0,
        0.9999585747718811,
        0.0,
        0.0,
        1.0,
        0.0,
        0.0,
        -0.0020923048723489046,
        0.0020395906176418066,
        0.014243940822780132,
        1.0
      ],
      "name": "_3"
    },
    {
      "children": [
        8
      ],
      "matrix": [
        0.02539999969303608,
        0.0,
        0.0,
        0.0,
        0.0,
        0.02539999969303608,
        0.0,
        0.0,
        0.0,
        0.0,
        0.02539999969303608,
        0.0,
        0.0,
        0.0,
        0.0,
        1.0
      ],
      "name": "10-20_2"
    },
    {
      "mesh": 1,
      "name": "Object_8"
    },
    {
      "children": [
        10
      ],
      "matrix": [
        0.9999893307685852,
        0.0,
        0.0046232943423092365,
        0.0,
        0.0046232943423092365,
        0.0,
        -0.9999893307685852,
        0.0,
        0.0,
        1.0,
        0.0,
        0.0,
        -0.002157302340492606,
        0.004009227734059095,
        0.1293889731168747,
        1.0
      ],
      "name": "_5"
    },
    {
      "children": [
        11
      ],
      "matrix": [
        0.02539999969303608,
        0.0,
        0.0,
        0.0,
        0.0,
        0.02539999969303608,
        0.0,
        0.0,
        0.0,
        0.0,
        0.02539999969303608,
        0.0,
        0.0,
        0.0,
        0.0,
        1.0
      ],
      "name": "20-30_4"
    },
    {
      "mesh": 2,
      "name": "Object_11"
    },
    {
      "children": [
        13
      ],
      "matrix": [
        -0.9999880194664001,
        0.0,
        0.00490045128390193,
        0.0,
        0.00490045128390193,
        0.0,
        0.9999880194664001,
        0.0,
        0.0,
        1.0,
        0.0,
        0.0,
        -0.0015053011011332273,
        0.006048818118870258,
        0.2191050797700882,
        1.0
      ],
      "name": "_7"
    },
    {
      "children": [
        14
      ],
      "matrix": [
        0.02539999969303608,
        0.0,
        0.0,
        0.0,
        0.0,
        0.02539999969303608,
        0.0,
        0.0,
        0.0,
        0.0,
        0.02539999969303608,
        0.0,
        0.0,
        0.0,
        0.0,
        1.0
      ],
      "name": "30-40_6"
    },
    {
      "mesh": 3,
      "name": "Object_14"
    },
    {
      "children": [
        16
      ],
      "matrix": [
        0.9998212456703186,
        0.0,
        -0.018908733502030373,
        0.0,
        -0.018908733502030373,
        0.0,
        -0.9998212456703186,
        0.0,
        0.0,
        1.0,
        0.0,
        0.0,
        0.0004259920970071107,
        0.0082418043166399,
        0.33493661880493164,
        1.0
      ],
      "name": "_9"
    },
    {
      "children": [
        17
      ],
      "matrix": [
        0.02539999969303608,
        0.0,
        0.0,
        0.0,
        0.0,
        0.02539999969303608,
        0.0,
        0.0,
        0.0,
        0.0,
        0.02539999969303608,
        0.0,
        0.0,
        0.0,
        0.0,
        1.0
      ],
      "name": "40-50_8"
    },
    {
      "mesh": 4,
      "name": "Object_17"
    },
    {
      "children": [
        19
      ],
      "matrix": [
        0.9998212456703186,
        0.0,
        -0.018908733502030373,
        0.0,
        -0.018908733502030373,
        0.0,
        -0.9998212456703186,
        0.0,
        0.0,
        0.21497218310832977,
        0.0,
        0.0,
        -0.0006217249319888651,
        0.008097639307379723,
        0.2772950530052185,
        1.0
      ],
      "name": "_11"
    },
    {
      "children": [
        20
      ],
      "matrix": [
        0.02539999969303608,
        0.0,
        0.0,
        0.0,
        0.0,
        0.02539999969303608,
        0.0,
        0.0,
        0.0,
        0.0,
        0.02539999969303608,
        0.0,
        0.0,
        0.0,
        0.0,
        1.0
      ],
      "name": "skrew5_10"
    },
    {
      "mesh": 5,
      "name": "Object_20"
    },
    {
      "children": [
        22
      ],
      "matrix": [
        -0.9999880194664001,
        0.0,
        0.00490045128390193,
        0.0,
        0.00490045128390193,
        0.0,
        0.9999880194664001,
        0.0,
        0.0,
        0.21671117842197418,
        0.0,
        0.0,
        -0.0021535309497267008,
        0.005863577593117952,
        0.17425604164600372,
        1.0
      ],
      "name": "_13"
    },
    {
      "children": [
        23
      ],
      "matrix": [
        0.02539999969303608,
        0.0,
        0.0,
        0.0,
        0.0,
        0.02539999969303608,
        0.0,
        0.0,
        0.0,
        0.0,
        0.02539999969303608,
        0.0,
        0.0,
        0.0,
        0.0,
        1.0
      ],
      "name": "skrew4_12"
    },
    {
      "mesh": 6,
      "name": "Object_23"
    },
    {
      "children": [
        25
      ],
      "matrix": [
        0.9999893307685852,
        0.0,
        0.0046232943423092365,
        0.0,
        0.0046232943423092365,
        0.0,
        -0.9999893307685852,
        0.0,
        0.0,
        0.21497218310832977,
        0.0,
        0.0,
        -0.0018598875030875206,
        0.003865062491968274,
        0.07173864543437958,
        1.0
      ],
      "name": "_15"
    },
    {
      "children": [
        26
      ],
      "matrix": [
        0.02539999969303608,
        0.0,
        0.0,
        0.0,
        0.0,
        0.02539999969303608,
        0.0,
        0.0,
        0.0,
        0.0,
        0.02539999969303608,
        0.0,
        0.0,
        0.0,
        0.0,
        1.0
      ],
      "name": "skrew4_14"
    },
    {
      "mesh": 7,
      "name": "Object_26"
    },
    {
      "children": [
        28
      ],
      "matrix": [
        -0.9999585747718811,
        0.0,
        -0.009105303324759007,
        0.0,
        -0.009105303324759007,
        0.0,
        0.9999585747718811,
        0.0,
        0.0,
        0.21671117842197418,
        0.0,
        0.0,
        -0.0017962759593501687,
        0.0018543502083048224,
        -0.030531715601682663,
        1.0
      ],
      "name": "_17"
    },
    {
      "children": [
        29
      ],
      "matrix": [
        0.02539999969303608,
        0.0,
        0.0,
        0.0,
        0.0,
        0.02539999969303608,
        0.0,
        0.0,
        0.0,
        0.0,
        0.02539999969303608,
        0.0,
        0.0,
        0.0,
        0.0,
        1.0
      ],
      "name": "skrew2_16"
    },
    {
      "mesh": 8,
      "name": "Object_29"
    },
    {
      "children": [
        31
      ],
      "matrix": [
        0.9999017715454102,
        0.0,
        0.01401654351502657,
        0.0,
        0.01401654351502657,
        0.0,
        -0.9999017715454102,
        0.0,
        0.0,
        0.21497218310832977,
        0.0,
        0.0,
        -0.0009314790950156748,
        -0.0001441660861019045,
        -0.13357830047607422,
        1.0
      ],
      "name": "_19"
    },
    {
      "children": [
        32
      ],
      "matrix": [
        0.02539999969303608,
        0.0,
        0.0,
        0.0,
        0.0,
        0.02539999969303608,
        0.0,
        0.0,
        0.0,
        0.0,
        0.02539999969303608,
        0.0,
        0.0,
        0.0,
        0.0,
        1.0
      ],
      "name": "skrew2_18"
    },
    {
      "mesh": 9,
      "name": "Object_32"
    }
  ],
  "samplers": [
    {
      "magFilter": 9729,
      "minFilter": 9729,
      "wrapS": 10497,
      "wrapT": 10497
    },
    {
      "magFilter": 9729,
      "minFilter": 9987,
      "wrapS": 10497,
      "wrapT": 10497
    }
  ],
  "scene": 0,
  "scenes": [
    {
      "name": "Sketchfab_Scene",
      "nodes": [
        0
      ]
    }
  ],
  "textures": [
    {
      "sampler": 0,
      "source": 0
    },
    {
      "sampler": 1,
      "source": 1
    }
  ]
}
