<?xml version="1.0" encoding="UTF-8" standalone="no"?>
<!DOCTYPE svg PUBLIC "-//W3C//DTD SVG 1.1//EN" "http://www.w3.org/Graphics/SVG/1.1/DTD/svg11.dtd">
<svg width="100%" height="100%" viewBox="0 0 1000 1000" version="1.1" xmlns="http://www.w3.org/2000/svg" xmlns:xlink="http://www.w3.org/1999/xlink" xml:space="preserve" xmlns:serif="http://www.serif.com/" style="fill-rule:evenodd;clip-rule:evenodd;stroke-linejoin:round;stroke-miterlimit:2;">
    <g id="wekit-logo-v7" transform="matrix(0.535578,0,0,0.535578,500,550.638)">
        <g transform="matrix(1,0,0,1,-500,-500)">
            <clipPath id="_clip1">
                <rect x="0" y="0" width="1000" height="1000"/>
            </clipPath>
            <g clip-path="url(#_clip1)">
                <rect x="333.334" y="980.393" width="332.611" height="19.608" style="fill:rgb(13,164,172);"/>
                <rect x="333.334" y="0" width="332.611" height="19.608" style="fill:rgb(13,164,172);"/>
                <path d="M333.333,882.353L647.059,490.202L666.667,490.202L333.333,1000L333.333,882.353Z" style="fill:rgb(13,164,172);fill-rule:nonzero;"/>
                <path d="M333.333,882.353L19.608,490.196L0,490.196L333.333,1000L333.333,882.353Z" style="fill:rgb(13,164,172);fill-rule:nonzero;"/>
                <rect x="19.607" y="470.588" width="333.334" height="19.608" style="fill:rgb(13,164,172);fill-rule:nonzero;"/>
                <rect x="647.059" y="470.588" width="333.333" height="19.608" style="fill:rgb(13,164,172);"/>
                <path d="M666.667,882.353L980.393,490.202L1000,490.202L666.667,1000L666.667,882.353Z" style="fill:rgb(0,223,200);fill-rule:nonzero;"/>
                <path d="M666.667,882.353L352.942,490.196L333.334,490.196L666.667,1000L666.667,882.353Z" style="fill:rgb(0,223,200);fill-rule:nonzero;"/>
                <path d="M333.333,0L0,490.196L19.608,490.196L333.333,29.412L647.059,490.196L666.667,490.196L333.333,0Z" style="fill:rgb(13,164,172);fill-rule:nonzero;"/>
                <path d="M666.667,0L333.334,490.196L352.942,490.196L666.667,29.412L980.393,490.196L1000,490.196L666.667,0Z" style="fill:rgb(13,164,172);fill-rule:nonzero;"/>
            </g>
        </g>
    </g>
    <g transform="matrix(1,0,0,0.811321,3.17662,-4.71473)">
        <rect x="75.604" y="85.133" width="842.44" height="134.689" style="fill:rgb(13,164,172);"/>
        <g transform="matrix(1,0,0,1.23256,15.2478,-44.8568)">
            <text x="309.538px" y="185.889px" style="font-family:'ArialMT', 'Arial', sans-serif;font-size:72px;fill:white;">Mirage·XR</text>
        </g>
    </g>
    <g transform="matrix(0.137255,0,0,5.71698,795.214,-321.075)">
        <rect x="75.604" y="85.133" width="842.44" height="134.689" style="fill:none;"/>
        <g transform="matrix(7.28571,0,0,0.174917,57.0884,66.686)">
            <text x="45.19px" y="174.197px" style="font-family:'Arial-BoldMT', 'Arial', sans-serif;font-weight:700;font-size:42px;fill:rgb(13,164,172);">C</text>
            <text x="48.677px" y="217.571px" style="font-family:'Arial-BoldMT', 'Arial', sans-serif;font-weight:700;font-size:42px;fill:rgb(13,164,172);">a</text>
            <text x="54.521px" y="260.945px" style="font-family:'Arial-BoldMT', 'Arial', sans-serif;font-weight:700;font-size:42px;fill:rgb(13,164,172);">l</text>
            <text x="54.521px" y="304.319px" style="font-family:'Arial-BoldMT', 'Arial', sans-serif;font-weight:700;font-size:42px;fill:rgb(13,164,172);">i</text>
            <text x="47.528px" y="347.693px" style="font-family:'Arial-BoldMT', 'Arial', sans-serif;font-weight:700;font-size:42px;fill:rgb(13,164,172);">b</text>
            <text x="52.183px" y="391.067px" style="font-family:'Arial-BoldMT', 'Arial', sans-serif;font-weight:700;font-size:42px;fill:rgb(13,164,172);">r</text>
            <text x="48.677px" y="434.441px" style="font-family:'Arial-BoldMT', 'Arial', sans-serif;font-weight:700;font-size:42px;fill:rgb(13,164,172);">a</text>
            <text x="53.363px" y="477.815px" style="font-family:'Arial-BoldMT', 'Arial', sans-serif;font-weight:700;font-size:42px;fill:rgb(13,164,172);">t</text>
            <text x="54.521px" y="521.189px" style="font-family:'Arial-BoldMT', 'Arial', sans-serif;font-weight:700;font-size:42px;fill:rgb(13,164,172);">i</text>
            <text x="47.528px" y="564.563px" style="font-family:'Arial-BoldMT', 'Arial', sans-serif;font-weight:700;font-size:42px;fill:rgb(13,164,172);">o</text>
            <text x="47.528px" y="607.937px" style="font-family:'Arial-BoldMT', 'Arial', sans-serif;font-weight:700;font-size:42px;fill:rgb(13,164,172);">n</text>
            <text x="49.087px" y="706.685px" style="font-family:'Arial-BoldMT', 'Arial', sans-serif;font-weight:700;font-size:42px;fill:rgb(13,164,172);">T</text>
            <text x="47.528px" y="750.059px" style="font-family:'Arial-BoldMT', 'Arial', sans-serif;font-weight:700;font-size:42px;fill:rgb(13,164,172);">o</text>
            <text x="47.528px" y="793.434px" style="font-family:'Arial-BoldMT', 'Arial', sans-serif;font-weight:700;font-size:42px;fill:rgb(13,164,172);">o</text>
            <text x="54.521px" y="836.808px" style="font-family:'Arial-BoldMT', 'Arial', sans-serif;font-weight:700;font-size:42px;fill:rgb(13,164,172);">l</text>
        </g>
        <path d="M918.043,85.133L75.604,85.133L75.604,219.822L918.043,219.822L918.043,85.133ZM133.651,86.527L133.651,218.428L859.996,218.428L859.996,86.527L133.651,86.527Z" style="fill:rgb(13,164,172);"/>
    </g>
    <g transform="matrix(0.137255,0,0,5.71698,68.4032,-321.075)">
        <rect x="75.604" y="85.133" width="842.44" height="134.689" style="fill:none;"/>
        <g transform="matrix(7.28571,0,0,0.174917,57.0884,66.686)">
            <text x="40.914px" y="332.006px" style="font-family:'Arial-BoldMT', 'Arial', sans-serif;font-weight:700;font-size:42px;fill:rgb(13,164,172);">W</text>
            <text x="47.528px" y="375.38px" style="font-family:'Arial-BoldMT', 'Arial', sans-serif;font-weight:700;font-size:42px;fill:rgb(13,164,172);">o</text>
            <text x="52.183px" y="418.754px" style="font-family:'Arial-BoldMT', 'Arial', sans-serif;font-weight:700;font-size:42px;fill:rgb(13,164,172);">r</text>
            <text x="48.677px" y="462.128px" style="font-family:'Arial-BoldMT', 'Arial', sans-serif;font-weight:700;font-size:42px;fill:rgb(13,164,172);">k</text>
            <text x="47.528px" y="505.502px" style="font-family:'Arial-BoldMT', 'Arial', sans-serif;font-weight:700;font-size:42px;fill:rgb(13,164,172);">p</text>
            <text x="54.521px" y="548.876px" style="font-family:'Arial-BoldMT', 'Arial', sans-serif;font-weight:700;font-size:42px;fill:rgb(13,164,172);">l</text>
            <text x="48.677px" y="592.25px" style="font-family:'Arial-BoldMT', 'Arial', sans-serif;font-weight:700;font-size:42px;fill:rgb(13,164,172);">a</text>
            <text x="48.677px" y="635.624px" style="font-family:'Arial-BoldMT', 'Arial', sans-serif;font-weight:700;font-size:42px;fill:rgb(13,164,172);">c</text>
            <text x="48.677px" y="678.998px" style="font-family:'Arial-BoldMT', 'Arial', sans-serif;font-weight:700;font-size:42px;fill:rgb(13,164,172);">e</text>
        </g>
        <path d="M918.043,85.133L75.604,85.133L75.604,219.822L918.043,219.822L918.043,85.133ZM133.651,86.527L133.651,218.428L859.996,218.428L859.996,86.527L133.651,86.527Z" style="fill:rgb(13,164,172);"/>
    </g>
</svg>
