<?xml version="1.0" encoding="utf-8"?>
<!-- Generator: Adobe Illustrator 24.2.3, SVG Export Plug-In . SVG Version: 6.00 Build 0)  -->
<svg version="1.1" id="Ebene_1" xmlns="http://www.w3.org/2000/svg" xmlns:xlink="http://www.w3.org/1999/xlink" x="0px" y="0px"
	 viewBox="0 0 24 24" style="enable-background:new 0 0 24 24;" xml:space="preserve">
<style type="text/css">
	.st0{fill:none;}
	.st1{fill:#FFFFFF;}
</style>
<path class="st0" d="M0,0h24v24H0V0z"/>
<path class="st1" d="M19,13H5c-1.1,0-2,0.9-2,2v4c0,1.1,0.9,2,2,2h14c1.1,0,2-0.9,2-2v-4C21,13.9,20.1,13,19,13z M7,19
	c-1.1,0-2-0.9-2-2s0.9-2,2-2s2,0.9,2,2S8.1,19,7,19z M19,3H5C3.9,3,3,3.9,3,5v4c0,1.1,0.9,2,2,2h14c1.1,0,2-0.9,2-2V5
	C21,3.9,20.1,3,19,3z M7,9C5.9,9,5,8.1,5,7s0.9-2,2-2s2,0.9,2,2S8.1,9,7,9z"/>
</svg>
