<?xml version="1.0" encoding="utf-8"?>
<!-- Generator: Adobe Illustrator 24.2.3, SVG Export Plug-In . SVG Version: 6.00 Build 0)  -->
<svg version="1.1" id="Ebene_1" xmlns="http://www.w3.org/2000/svg" xmlns:xlink="http://www.w3.org/1999/xlink" x="0px" y="0px"
	 viewBox="0 0 24 24" style="enable-background:new 0 0 24 24;" xml:space="preserve">
<style type="text/css">
	.st0{fill:none;}
	.st1{fill:#FFFFFF;}
</style>
<path class="st0" d="M0,0h24v24H0V0z"/>
<path class="st1" d="M19.35,10.04C18.67,6.59,15.64,4,12,4C9.11,4,6.6,5.64,5.35,8.04C2.34,8.36,0,10.91,0,14c0,3.31,2.69,6,6,6h13
	c2.76,0,5-2.24,5-5C24,12.36,21.95,10.22,19.35,10.04z M10.71,16.29c-0.39,0.39-1.02,0.39-1.41,0L7.2,14.2
	c-0.39-0.39-0.39-1.02,0-1.41s1.02-0.39,1.41,0L10,14.18l4.48-4.48c0.39-0.39,1.02-0.39,1.41,0s0.39,1.02,0,1.41
	C15.89,11.11,10.71,16.29,10.71,16.29z"/>
</svg>
