<?xml version="1.0" encoding="utf-8"?>
<!-- Generator: Adobe Illustrator 24.2.3, SVG Export Plug-In . SVG Version: 6.00 Build 0)  -->
<svg version="1.1" id="Ebene_1" xmlns="http://www.w3.org/2000/svg" xmlns:xlink="http://www.w3.org/1999/xlink" x="0px" y="0px"
	 viewBox="0 0 24 24" style="enable-background:new 0 0 24 24;" xml:space="preserve">
<style type="text/css">
	.st0{fill:none;}
	.st1{fill:#FFFFFF;}
</style>
<path class="st0" d="M0,0h24v24H0V0z"/>
<path class="st1" d="M16.59,9H15V4c0-0.55-0.45-1-1-1h-4C9.45,3,9,3.45,9,4v5H7.41c-0.89,0-1.34,1.08-0.71,1.71l4.59,4.59
	c0.39,0.39,1.02,0.39,1.41,0l4.59-4.59C17.92,10.08,17.48,9,16.59,9z M5,19c0,0.55,0.45,1,1,1h12c0.55,0,1-0.45,1-1s-0.45-1-1-1H6
	C5.45,18,5,18.45,5,19z"/>
</svg>
