<?xml version="1.0" encoding="utf-8"?>
<!-- Generator: Adobe Illustrator 24.3.0, SVG Export Plug-In . SVG Version: 6.00 Build 0)  -->
<svg version="1.1" id="Ebene_1" xmlns="http://www.w3.org/2000/svg" xmlns:xlink="http://www.w3.org/1999/xlink" x="0px" y="0px"
	 viewBox="0 0 24 24" style="enable-background:new 0 0 24 24;" xml:space="preserve">
<style type="text/css">
	.st0{fill:#FFFFFF;}
</style>
<path class="st0" d="M18.9,13c-0.5,0-0.9,0.4-1,0.9c-0.5,3.4-3.8,5.8-7.4,5c-2.2-0.5-3.9-2.3-4.4-4.5C5.3,10.4,8.3,7,12,7v2.8
	c0,0.4,0.5,0.7,0.9,0.4l3.8-3.8c0.2-0.2,0.2-0.5,0-0.7l-3.8-3.8C12.5,1.5,12,1.8,12,2.2V5c-4.9,0-8.8,4.5-7.8,9.6
	c0.6,3.1,2.9,5.5,6,6.2c4.8,1.1,9.2-2.2,9.8-6.7C20,13.5,19.5,13,18.9,13z M10.9,16v-4.3h-0.1L9,12.4V13l1-0.3V16H10.9z M14.3,11.8
	c-0.2-0.1-0.4-0.1-0.6-0.1s-0.4,0-0.6,0.1s-0.3,0.2-0.4,0.3s-0.2,0.3-0.3,0.6s-0.1,0.5-0.1,0.8v0.7c0,0.3,0,0.6,0.1,0.8
	s0.2,0.4,0.3,0.6s0.3,0.3,0.5,0.3s0.4,0.1,0.6,0.1s0.4,0,0.6-0.1s0.3-0.2,0.4-0.3s0.2-0.3,0.3-0.6s0.1-0.5,0.1-0.8v-0.7
	c0-0.3,0-0.6-0.1-0.8s-0.2-0.4-0.3-0.6S14.5,11.9,14.3,11.8z M14.3,14.4c0,0.2,0,0.4,0,0.5s-0.1,0.2-0.1,0.3s-0.1,0.1-0.2,0.2
	s-0.2,0.1-0.2,0.1s-0.2,0-0.2-0.1s-0.1-0.1-0.2-0.2s-0.1-0.2-0.1-0.3s0-0.3,0-0.5v-1c0-0.2,0-0.4,0-0.5s0.1-0.2,0.1-0.3
	s0.1-0.1,0.2-0.2s0.2-0.1,0.2-0.1s0.2,0,0.2,0.1s0.1,0.1,0.2,0.2s0.1,0.2,0.1,0.3s0,0.3,0,0.5L14.3,14.4L14.3,14.4z"/>
</svg>
