<?xml version="1.0" encoding="utf-8"?>
<!-- Generator: Adobe Illustrator 24.2.3, SVG Export Plug-In . SVG Version: 6.00 Build 0)  -->
<svg version="1.1" id="Ebene_1" xmlns="http://www.w3.org/2000/svg" xmlns:xlink="http://www.w3.org/1999/xlink" x="0px" y="0px"
	 viewBox="0 0 24 24" style="enable-background:new 0 0 24 24;" xml:space="preserve">
<style type="text/css">
	.st0{fill:none;}
	.st1{fill:#FFFFFF;}
</style>
<path class="st0" d="M0,0h24v24H0V0z"/>
<path class="st1" d="M4,15h16c0.5,0,1-0.4,1-1s-0.5-1-1-1H4c-0.5,0-1,0.4-1,1S3.5,15,4,15z M4,19h16c0.5,0,1-0.5,1-1s-0.5-1-1-1H4
	c-0.5,0-1,0.5-1,1S3.5,19,4,19z M4,11h16c0.5,0,1-0.4,1-1s-0.5-1-1-1H4c-0.5,0-1,0.4-1,1S3.5,11,4,11z M3,6c0,0.6,0.5,1,1,1h16
	c0.5,0,1-0.4,1-1s-0.5-1-1-1H4C3.5,5,3,5.4,3,6z"/>
</svg>
