<?xml version="1.0" encoding="utf-8"?>
<!-- Generator: Adobe Illustrator 24.3.0, SVG Export Plug-In . SVG Version: 6.00 Build 0)  -->
<svg version="1.1" id="Ebene_1" xmlns="http://www.w3.org/2000/svg" xmlns:xlink="http://www.w3.org/1999/xlink" x="0px" y="0px"
	 viewBox="0 0 24 24" style="enable-background:new 0 0 24 24;" xml:space="preserve">
<style type="text/css">
	.st0{fill:none;}
	.st1{fill:#FFFFFF;}
</style>
<path class="st0" d="M0,0h24v24H0V0z"/>
<path class="st1" d="M20.8,7c-0.1-0.6-0.7-0.9-1.2-0.8C17.1,6.8,14.5,7,12,7S6.9,6.8,4.5,6.2C3.9,6.1,3.4,6.4,3.2,7
	C3.1,7.5,3.4,8.1,4,8.2C5.6,8.6,7.3,8.9,9,9v12c0,0.5,0.4,1,1,1s1-0.5,1-1v-5h2v5c0,0.5,0.4,1,1,1s1-0.5,1-1V9
	c1.6-0.1,3.4-0.4,5-0.8C20.5,8.1,20.9,7.6,20.8,7z M12,6c1.1,0,2-0.9,2-2s-0.9-2-2-2s-2,0.9-2,2S10.9,6,12,6z"/>
</svg>
