<?xml version="1.0" encoding="utf-8"?>
<!-- Generator: Adobe Illustrator 24.3.0, SVG Export Plug-In . SVG Version: 6.00 Build 0)  -->
<svg version="1.1" xmlns="http://www.w3.org/2000/svg" xmlns:xlink="http://www.w3.org/1999/xlink" x="0px" y="0px"
	 viewBox="0 0 24 24" style="enable-background:new 0 0 24 24;" xml:space="preserve">
<style type="text/css">
	.st0{fill:none;}
	.st1{fill:#FFFFFF;}
</style>
<g id="Ebene_1">
	<path class="st0" d="M0,0h24v24H0V0z"/>
	<path class="st1" d="M14.8,7.2c0,1.6-1.3,2.9-2.9,2.9S9.1,8.7,9.1,7.2c0-0.1,0-0.2,0-0.3c0,0,0,0,0,0C8.9,6.8,8.8,6.8,8.7,6.8
		c-0.5,0-1,0.4-1,1v5.6c0,0.5,0.4,1,1,1c0.1,0,0.2,0,0.3-0.1V21c0,0.5,0.4,1,1,1s1-0.5,1-1v-5h2v5c0,0.5,0.4,1,1,1s1-0.5,1-1v-6.7
		c0.1,0,0.1,0,0.2,0c0.5,0,1-0.4,1-1V7.8c0-0.5-0.4-1-1-1c-0.1,0-0.3,0.1-0.5,0.1"/>
	<path class="st0" d="M0,0h24v24H0V0z"/>
</g>
<g id="Ebene_2">
	<circle class="st1" cx="11.9" cy="7.1" r="2"/>
</g>
</svg>
