<?xml version="1.0" encoding="utf-8"?>
<!-- Generator: Adobe Illustrator 24.3.0, SVG Export Plug-In . SVG Version: 6.00 Build 0)  -->
<svg version="1.1" id="Ebene_1" xmlns="http://www.w3.org/2000/svg" xmlns:xlink="http://www.w3.org/1999/xlink" x="0px" y="0px"
	 viewBox="0 0 24 24" style="enable-background:new 0 0 24 24;" xml:space="preserve">
<style type="text/css">
	.st0{fill:#FFFFFF;}
</style>
<path class="st0" d="M12,5V2.2c0-0.5-0.5-0.7-0.9-0.4L7.3,5.7c-0.2,0.2-0.2,0.5,0,0.7l3.8,3.8c0.3,0.3,0.9,0.1,0.9-0.4V7
	c3.7,0,6.7,3.4,5.9,7.3c-0.5,2.3-2.3,4.1-4.6,4.6c-3.6,0.8-6.8-1.7-7.2-5C6,13.4,5.6,13,5.1,13c-0.6,0-1.1,0.5-1,1.1
	c0.6,4.4,4.8,7.6,9.5,6.7c3.1-0.6,5.6-3.1,6.2-6.2C20.8,9.5,16.9,5,12,5z M10.9,16H10v-3.3l-1,0.3v-0.7l1.8-0.6h0.1V16z M15.2,14.2
	c0,0.3,0,0.6-0.1,0.8s-0.2,0.4-0.3,0.6s-0.3,0.3-0.4,0.3s-0.4,0.1-0.6,0.1s-0.4,0-0.6-0.1s-0.3-0.2-0.5-0.3s-0.2-0.3-0.3-0.6
	s-0.1-0.5-0.1-0.8v-0.7c0-0.3,0-0.6,0.1-0.8s0.2-0.4,0.3-0.6s0.3-0.3,0.4-0.3s0.4-0.1,0.6-0.1s0.4,0,0.6,0.1s0.3,0.2,0.5,0.3
	s0.2,0.3,0.3,0.6s0.1,0.5,0.1,0.8V14.2z M14.3,13.4c0-0.2,0-0.4,0-0.5s-0.1-0.2-0.1-0.3s-0.1-0.1-0.2-0.2s-0.2-0.1-0.2-0.1
	s-0.2,0-0.2,0.1s-0.1,0.1-0.2,0.2s-0.1,0.2-0.1,0.3s0,0.3,0,0.5v1c0,0.2,0,0.4,0,0.5s0.1,0.2,0.1,0.3s0.1,0.1,0.2,0.2
	s0.2,0.1,0.2,0.1s0.2,0,0.2-0.1s0.1-0.1,0.2-0.2s0.1-0.2,0.1-0.3s0-0.3,0-0.5L14.3,13.4L14.3,13.4z"/>
</svg>
