<?xml version="1.0" encoding="utf-8"?>
<!-- Generator: Adobe Illustrator 24.2.3, SVG Export Plug-In . SVG Version: 6.00 Build 0)  -->
<svg version="1.1" id="Ebene_1" xmlns="http://www.w3.org/2000/svg" xmlns:xlink="http://www.w3.org/1999/xlink" x="0px" y="0px"
	 viewBox="0 0 24 24" style="enable-background:new 0 0 24 24;" xml:space="preserve">
<style type="text/css">
	.st0{fill:none;}
	.st1{fill:#FFFFFF;}
</style>
<path class="st0" d="M0,0h24v24H0V0z"/>
<path class="st1" d="M15.5,14h-0.8l-0.3-0.3c1.2-1.4,1.8-3.3,1.5-5.3c-0.5-2.8-2.8-5-5.6-5.3c-4.2-0.5-7.8,3-7.3,7.3
	c0.3,2.8,2.6,5.1,5.3,5.6c2,0.3,3.9-0.3,5.3-1.5l0.3,0.3v0.8l4.3,4.3c0.4,0.4,1.1,0.4,1.5,0s0.4-1.1,0-1.5L15.5,14z M9.5,14
	C7,14,5,12,5,9.5S7,5,9.5,5S14,7,14,9.5S12,14,9.5,14z"/>
</svg>
