<?xml version="1.0" encoding="utf-8"?>
<!-- Generator: Adobe Illustrator 24.3.0, SVG Export Plug-In . SVG Version: 6.00 Build 0)  -->
<svg version="1.1" id="Ebene_1" xmlns="http://www.w3.org/2000/svg" xmlns:xlink="http://www.w3.org/1999/xlink" x="0px" y="0px"
	 viewBox="0 0 24 24" style="enable-background:new 0 0 24 24;" xml:space="preserve">
<style type="text/css">
	.st0{fill:none;}
	.st1{fill:#FFFFFF;}
</style>
<path class="st0" d="M0,0h24v24H0V0z"/>
<path class="st1" d="M13,17H5c-0.6,0-1,0.5-1,1s0.4,1,1,1h8c0.6,0,1-0.5,1-1S13.6,17,13,17z M19,9H5c-0.6,0-1,0.4-1,1s0.4,1,1,1h14
	c0.5,0,1-0.4,1-1S19.5,9,19,9z M5,15h14c0.5,0,1-0.4,1-1s-0.5-1-1-1H5c-0.6,0-1,0.4-1,1S4.4,15,5,15z M4,6c0,0.6,0.4,1,1,1h14
	c0.5,0,1-0.4,1-1s-0.5-1-1-1H5C4.4,5,4,5.4,4,6z"/>
</svg>
