<?xml version="1.0" encoding="utf-8"?>
<!-- Generator: Adobe Illustrator 24.2.3, SVG Export Plug-In . SVG Version: 6.00 Build 0)  -->
<svg version="1.1" id="Ebene_1" xmlns="http://www.w3.org/2000/svg" xmlns:xlink="http://www.w3.org/1999/xlink" x="0px" y="0px"
	 viewBox="0 0 24 24" style="enable-background:new 0 0 24 24;" xml:space="preserve">
<style type="text/css">
	.st0{fill:none;}
	.st1{fill:#FFFFFF;}
</style>
<path class="st0" d="M0,0h24v24H0V0z M0,0h24v24H0V0z"/>
<path class="st1" d="M13.1,2.1L7.6,7.6C7.2,8,7,8.5,7,9v10c0,1.1,0.9,2,2,2h9c0.8,0,1.5-0.5,1.8-1.2l3.3-7.6c0.8-2-0.6-4.2-2.8-4.2
	h-5.6l0.9-4.6c0.1-0.5-0.1-1-0.4-1.4C14.6,1.5,13.7,1.5,13.1,2.1z M3,21c1.1,0,2-0.9,2-2v-8c0-1.1-0.9-2-2-2s-2,0.9-2,2v8
	C1,20.1,1.9,21,3,21z"/>
</svg>
