<?xml version="1.0" encoding="utf-8"?>
<!-- Generator: Adobe Illustrator 24.2.3, SVG Export Plug-In . SVG Version: 6.00 Build 0)  -->
<svg version="1.1" id="Ebene_1" xmlns="http://www.w3.org/2000/svg" xmlns:xlink="http://www.w3.org/1999/xlink" x="0px" y="0px"
	 viewBox="0 0 24 24" style="enable-background:new 0 0 24 24;" xml:space="preserve">
<style type="text/css">
	.st0{fill:none;}
	.st1{fill:#FFFFFF;}
</style>
<path class="st0" d="M0,0h24v24H0V0z"/>
<path class="st1" d="M12,13c-1.1,0-2,0.9-2,2s0.9,2,2,2s2-0.9,2-2S13.1,13,12,13z M18,8h-1V6c0-2.8-2.2-5-5-5C9.7,1,7.7,2.5,7.2,4.8
	C7,5.3,7.3,5.8,7.9,6C8.4,6.1,9,5.8,9.1,5.3C9.4,3.9,10.6,3,12,3c1.6,0,3,1.3,3,3v2H6c-1.1,0-2,0.9-2,2v10c0,1.1,0.9,2,2,2h12
	c1.1,0,2-0.9,2-2V10C20,8.9,19.1,8,18,8z M18,19c0,0.5-0.5,1-1,1H7c-0.6,0-1-0.5-1-1v-8c0-0.6,0.4-1,1-1h10c0.5,0,1,0.4,1,1V19z"/>
</svg>
