<?xml version="1.0" encoding="utf-8"?>
<!-- Generator: Adobe Illustrator 24.2.3, SVG Export Plug-In . SVG Version: 6.00 Build 0)  -->
<svg version="1.1" id="Ebene_1" xmlns="http://www.w3.org/2000/svg" xmlns:xlink="http://www.w3.org/1999/xlink" x="0px" y="0px"
	 viewBox="0 0 24 24" style="enable-background:new 0 0 24 24;" xml:space="preserve">
<style type="text/css">
	.st0{fill:none;}
	.st1{fill:#FFFFFF;}
</style>
<path class="st0" d="M0,0h24v24H0V0z"/>
<path class="st1" d="M12,20l-0.86-0.86c-1.18-1.18-1.17-3.1,0.02-4.26L12,14.06C11.61,14.02,11.32,14,11,14c-2.67,0-8,1.34-8,4v2
	C3,20,12,20,12,20z M11,12c2.21,0,4-1.79,4-4s-1.79-4-4-4S7,5.79,7,8S8.79,12,11,12"/>
<path class="st1" d="M16.18,19.78c-0.39,0.39-1.03,0.39-1.42,0l-2.07-2.09c-0.38-0.39-0.38-1.01,0-1.39l0.01-0.01
	c0.39-0.39,1.02-0.39,1.4,0l1.37,1.37l4.43-4.46c0.39-0.39,1.02-0.39,1.41,0l0.01,0.01c0.38,0.39,0.38,1.01,0,1.39
	C21.32,14.6,16.18,19.78,16.18,19.78z"/>
</svg>
