<?xml version="1.0" encoding="UTF-8" standalone="no"?>
<!DOCTYPE svg PUBLIC "-//W3C//DTD SVG 1.1//EN" "http://www.w3.org/Graphics/SVG/1.1/DTD/svg11.dtd">
<svg width="100%" height="100%" viewBox="0 0 512 512" version="1.1" xmlns="http://www.w3.org/2000/svg" xmlns:xlink="http://www.w3.org/1999/xlink" xml:space="preserve" xmlns:serif="http://www.serif.com/" style="fill-rule:evenodd;clip-rule:evenodd;stroke-linejoin:round;stroke-miterlimit:2;">
    <g transform="matrix(7.60864,0,0,7.60864,12.5235,12.5235)">
        <path d="M32,0C49.661,0 64,14.339 64,32C64,49.661 49.661,64 32,64C14.339,64 0,49.661 0,32C0,14.339 14.339,0 32,0ZM32,7.188C45.694,7.188 56.812,18.306 56.812,32C56.812,45.694 45.694,56.812 32,56.812C18.306,56.812 7.188,45.694 7.188,32C7.188,18.306 18.306,7.188 32,7.188Z" style="fill:rgb(235,235,235);fill-opacity:0.5;"/>
    </g>
    <g transform="matrix(7.60864,0,0,7.60864,12.5235,12.5235)">
        <path d="M54.627,9.373C48.626,3.371 40.487,0 32,0C23.513,0 15.374,3.371 9.373,9.373L14.455,14.455C19.108,9.802 25.419,7.188 32,7.188C38.581,7.188 44.892,9.802 49.545,14.455L54.627,9.373Z" style="fill:rgb(218,217,217);"/>
    </g>
</svg>
