{
  "accessors": [
    {
      "bufferView": 1,
      "componentType": 5126,
      "count": 388,
      "max": [
        28.580801010131836,
        17.731725692749023,
        1.8231754302978516
      ],
      "min": [
        -59.0714225769043,
        -16.158157348632813,
        -33.10297393798828
      ],
      "type": "VEC3"
    },
    {
      "bufferView": 1,
      "byteOffset": 4656,
      "componentType": 5126,
      "count": 388,
      "max": [
        0.9997345209121704,
        0.9998694658279419,
        0.9997345805168152
      ],
      "min": [
        -0.9997345209121704,
        -0.9998694658279419,
        -0.9997345805168152
      ],
      "type": "VEC3"
    },
    {
      "bufferView": 0,
      "componentType": 5125,
      "count": 1020,
      "type": "SCALAR"
    },
    {
      "bufferView": 1,
      "byteOffset": 9312,
      "componentType": 5126,
      "count": 458,
      "max": [
        40.51934814453125,
        50.09947967529297,
        34.84335708618164
      ],
      "min": [
        -70.55101776123047,
        -49.81092834472656,
        -35.2049674987793
      ],
      "type": "VEC3"
    },
    {
      "bufferView": 1,
      "byteOffset": 14808,
      "componentType": 5126,
      "count": 458,
      "max": [
        0.9999970197677612,
        1.0,
        0.9992684721946716
      ],
      "min": [
        -0.9877224564552307,
        -1.0,
        -0.998954713344574
      ],
      "type": "VEC3"
    },
    {
      "bufferView": 0,
      "byteOffset": 4080,
      "componentType": 5125,
      "count": 1746,
      "type": "SCALAR"
    },
    {
      "bufferView": 1,
      "byteOffset": 20304,
      "componentType": 5126,
      "count": 368,
      "max": [
        105.32770538330078,
        41.2225227355957,
        43.29582214355469
      ],
      "min": [
        -78.24240112304688,
        -41.207035064697266,
        -52.67829895019531
      ],
      "type": "VEC3"
    },
    {
      "bufferView": 1,
      "byteOffset": 24720,
      "componentType": 5126,
      "count": 368,
      "max": [
        0.9997345209121704,
        0.9986963868141174,
        0.9997345209121704
      ],
      "min": [
        -0.9997345209121704,
        -0.9986963868141174,
        -0.9997345209121704
      ],
      "type": "VEC3"
    },
    {
      "bufferView": 0,
      "byteOffset": 11064,
      "componentType": 5125,
      "count": 1464,
      "type": "SCALAR"
    },
    {
      "bufferView": 1,
      "byteOffset": 29136,
      "componentType": 5126,
      "count": 1370,
      "max": [
        104.60031127929688,
        41.119728088378906,
        43.23336410522461
      ],
      "min": [
        -83.09058380126953,
        -40.84910202026367,
        -51.55197525024414
      ],
      "type": "VEC3"
    },
    {
      "bufferView": 1,
      "byteOffset": 45576,
      "componentType": 5126,
      "count": 1370,
      "max": [
        0.99973464012146,
        1.0,
        0.9998028874397278
      ],
      "min": [
        -0.9997345209121704,
        -1.0,
        -0.99973464012146
      ],
      "type": "VEC3"
    },
    {
      "bufferView": 0,
      "byteOffset": 16920,
      "componentType": 5125,
      "count": 4548,
      "type": "SCALAR"
    }
  ],
  "asset": {
    "extras": {
      "author": "fwild (https://sketchfab.com/fwild)",
      "license": "CC-BY-4.0 (http://creativecommons.org/licenses/by/4.0/)",
      "source": "https://sketchfab.com/3d-models/wheelbarrow-2-bzb23-7746754b46ce4833a6cb8ffba62ae58a",
      "title": "Wheelbarrow 2 bzb23"
    },
    "generator": "Sketchfab-15.27.0",
    "version": "2.0"
  },
  "bufferViews": [
    {
      "buffer": 0,
      "byteLength": 35112,
      "name": "floatBufferViews",
      "target": 34963
    },
    {
      "buffer": 0,
      "byteLength": 62016,
      "byteOffset": 35112,
      "byteStride": 12,
      "name": "floatBufferViews",
      "target": 34962
    }
  ],
  "buffers": [
    {
      "byteLength": 97128,
      "uri": "scene.bin"
    }
  ],
  "materials": [
    {
      "name": "Metal",
      "pbrMetallicRoughness": {
        "baseColorFactor": [
          0.5,
          0.5,
          0.5,
          1.0
        ],
        "metallicFactor": 0.55,
        "roughnessFactor": 0.33
      }
    },
    {
      "name": "black_metak",
      "pbrMetallicRoughness": {
        "baseColorFactor": [
          0.0277553,
          0.0277553,
          0.0277553,
          1.0
        ],
        "metallicFactor": 0.14,
        "roughnessFactor": 0.27
      }
    },
    {
      "name": "black_rubber",
      "pbrMetallicRoughness": {
        "baseColorFactor": [
          0.00969633,
          0.00969633,
          0.00969633,
          1.0
        ],
        "metallicFactor": 0.0,
        "roughnessFactor": 0.1
      }
    },
    {
      "name": "red_metal",
      "pbrMetallicRoughness": {
        "baseColorFactor": [
          0.499505,
          0.0134734,
          0.0134734,
          1.0
        ],
        "metallicFactor": 0.78,
        "roughnessFactor": 0.25
      }
    }
  ],
  "meshes": [
    {
      "name": "Object_0",
      "primitives": [
        {
          "attributes": {
            "NORMAL": 1,
            "POSITION": 0
          },
          "indices": 2,
          "material": 0,
          "mode": 4
        }
      ]
    },
    {
      "name": "Object_1",
      "primitives": [
        {
          "attributes": {
            "NORMAL": 4,
            "POSITION": 3
          },
          "indices": 5,
          "material": 1,
          "mode": 4
        }
      ]
    },
    {
      "name": "Object_2",
      "primitives": [
        {
          "attributes": {
            "NORMAL": 7,
            "POSITION": 6
          },
          "indices": 8,
          "material": 2,
          "mode": 4
        }
      ]
    },
    {
      "name": "Object_3",
      "primitives": [
        {
          "attributes": {
            "NORMAL": 10,
            "POSITION": 9
          },
          "indices": 11,
          "material": 3,
          "mode": 4
        }
      ]
    }
  ],
  "nodes": [
    {
      "children": [
        1
      ],
      "matrix": [
        1.0,
        0.0,
        0.0,
        0.0,
        0.0,
        2.220446049250313e-16,
        -1.0,
        0.0,
        0.0,
        1.0,
        2.220446049250313e-16,
        0.0,
        0.0,
        0.0,
        0.0,
        1.0
      ],
      "name": "Sketchfab_model"
    },
    {
      "children": [
        2
      ],
      "name": "root"
    },
    {
      "children": [
        3
      ],
      "matrix": [
        1.0,
        0.0,
        0.0,
        0.0,
        0.0,
        2.220446049250313e-16,
        1.0,
        0.0,
        0.0,
        -1.0,
        2.220446049250313e-16,
        0.0,
        0.0,
        0.0,
        0.0,
        1.0
      ],
      "name": "GLTF_SceneRootNode"
    },
    {
      "children": [
        4
      ],
      "matrix": [
        0.30093997716903687,
        -0.0069358935579657555,
        -9.538777545614607e-10,
        0.0,
        -8.809104556917191e-10,
        0.0,
        -0.2779194116592407,
        0.0,
        0.0069358935579657555,
        0.30093997716903687,
        -2.198443337098066e-11,
        0.0,
        0.1918550282716751,
        0.4024569094181061,
        0.04848562926054001,
        1.0
      ],
      "name": "_1"
    },
    {
      "children": [
        5,
        6,
        7,
        8
      ],
      "matrix": [
        0.02539999969303608,
        0.0,
        0.0,
        0.0,
        0.0,
        0.02539999969303608,
        0.0,
        0.0,
        0.0,
        0.0,
        0.02539999969303608,
        0.0,
        0.0,
        0.0,
        0.0,
        1.0
      ],
      "name": "Box001_0"
    },
    {
      "mesh": 0,
      "name": "Object_5"
    },
    {
      "mesh": 1,
      "name": "Object_6"
    },
    {
      "mesh": 2,
      "name": "Object_7"
    },
    {
      "mesh": 3,
      "name": "Object_8"
    }
  ],
  "scene": 0,
  "scenes": [
    {
      "name": "Sketchfab_Scene",
      "nodes": [
        0
      ]
    }
  ]
}
