{
  "accessors": [
    {
      "bufferView": 2,
      "componentType": 5126,
      "count": 185,
      "max": [
        11.495138168334961,
        11.206930160522461,
        88.99513244628906
      ],
      "min": [
        -11.495138168334961,
        -11.206931114196777,
        13.107988357543945
      ],
      "type": "VEC3"
    },
    {
      "bufferView": 2,
      "byteOffset": 2220,
      "componentType": 5126,
      "count": 185,
      "max": [
        0.9998582005500793,
        0.9747896194458008,
        0.8836222290992737
      ],
      "min": [
        -0.9998582005500793,
        -0.9747896194458008,
        -0.4150679111480713
      ],
      "type": "VEC3"
    },
    {
      "bufferView": 1,
      "componentType": 5126,
      "count": 185,
      "max": [
        1.0357142686843872,
        0.8200093507766724
      ],
      "min": [
        -0.03571438789367676,
        0.015890538692474365
      ],
      "type": "VEC2"
    },
    {
      "bufferView": 0,
      "componentType": 5125,
      "count": 924,
      "type": "SCALAR"
    },
    {
      "bufferView": 2,
      "byteOffset": 4440,
      "componentType": 5126,
      "count": 336,
      "max": [
        7.974002838134766,
        7.774080276489258,
        90.4947738647461
      ],
      "min": [
        -7.974002838134766,
        -7.774075984954834,
        -3.878281831741333
      ],
      "type": "VEC3"
    },
    {
      "bufferView": 2,
      "byteOffset": 8472,
      "componentType": 5126,
      "count": 336,
      "max": [
        0.9984275698661804,
        0.9733948111534119,
        1.0
      ],
      "min": [
        -0.9984275698661804,
        -0.9733948111534119,
        -1.0
      ],
      "type": "VEC3"
    },
    {
      "bufferView": 0,
      "byteOffset": 3696,
      "componentType": 5125,
      "count": 1164,
      "type": "SCALAR"
    },
    {
      "bufferView": 2,
      "byteOffset": 12504,
      "componentType": 5126,
      "count": 244,
      "max": [
        66.37002563476563,
        10.183003425598145,
        4.14341926574707
      ],
      "min": [
        23.62749671936035,
        -10.71094036102295,
        -4.143416404724121
      ],
      "type": "VEC3"
    },
    {
      "bufferView": 2,
      "byteOffset": 15432,
      "componentType": 5126,
      "count": 244,
      "max": [
        0.9998371005058289,
        0.9982017278671265,
        0.9989641904830933
      ],
      "min": [
        -0.9981687664985657,
        -0.9981985688209534,
        -0.9989641904830933
      ],
      "type": "VEC3"
    },
    {
      "bufferView": 0,
      "byteOffset": 8352,
      "componentType": 5125,
      "count": 966,
      "type": "SCALAR"
    },
    {
      "bufferView": 2,
      "byteOffset": 18360,
      "componentType": 5126,
      "count": 200,
      "max": [
        23.691720962524414,
        -9.70205020904541,
        4.143418788909912
      ],
      "min": [
        -131.88905334472656,
        -11.771620750427246,
        -4.143426418304443
      ],
      "type": "VEC3"
    },
    {
      "bufferView": 2,
      "byteOffset": 20760,
      "componentType": 5126,
      "count": 200,
      "max": [
        0.11391906440258026,
        0.9991838932037354,
        0.9983640909194946
      ],
      "min": [
        -0.9990212917327881,
        -0.9982040524482727,
        -0.9983640909194946
      ],
      "type": "VEC3"
    },
    {
      "bufferView": 0,
      "byteOffset": 12216,
      "componentType": 5125,
      "count": 858,
      "type": "SCALAR"
    }
  ],
  "asset": {
    "extras": {
      "author": "fwild (https://sketchfab.com/fwild)",
      "license": "CC-BY-4.0 (http://creativecommons.org/licenses/by/4.0/)",
      "source": "https://sketchfab.com/3d-models/trowel-bzb23-9956e598ebe54a0eab40a0cf20d045c6",
      "title": "Trowel bzb23"
    },
    "generator": "Sketchfab-15.26.0",
    "version": "2.0"
  },
  "bufferViews": [
    {
      "buffer": 0,
      "byteLength": 15648,
      "name": "floatBufferViews",
      "target": 34963
    },
    {
      "buffer": 0,
      "byteLength": 1480,
      "byteOffset": 15648,
      "byteStride": 8,
      "name": "floatBufferViews",
      "target": 34962
    },
    {
      "buffer": 0,
      "byteLength": 23160,
      "byteOffset": 17128,
      "byteStride": 12,
      "name": "floatBufferViews",
      "target": 34962
    }
  ],
  "buffers": [
    {
      "byteLength": 40288,
      "uri": "scene.bin"
    }
  ],
  "extensionsUsed": [
    "KHR_materials_specular"
  ],
  "images": [
    {
      "uri": "textures/blueWood_baseColor.jpeg"
    },
    {
      "uri": "textures/blueWood_specularf0.png"
    }
  ],
  "materials": [
    {
      "extensions": {
        "KHR_materials_specular": {
          "specularColorFactor": [
            1.0,
            1.0,
            1.0
          ],
          "specularFactor": 1.0,
          "specularTexture": {
            "index": 1
          }
        }
      },
      "name": "blueWood",
      "pbrMetallicRoughness": {
        "baseColorFactor": [
          0.5,
          0.5,
          0.5,
          1.0
        ],
        "baseColorTexture": {
          "index": 0
        },
        "metallicFactor": 0.0,
        "roughnessFactor": 0.0
      }
    },
    {
      "name": "metal",
      "pbrMetallicRoughness": {
        "baseColorFactor": [
          0.5,
          0.5,
          0.5,
          1.0
        ],
        "metallicFactor": 0.96,
        "roughnessFactor": 0.59
      }
    },
    {
      "name": "darkMetal",
      "pbrMetallicRoughness": {
        "baseColorFactor": [
          0.166872,
          0.166872,
          0.166872,
          1.0
        ],
        "metallicFactor": 0.96,
        "roughnessFactor": 0.59
      }
    }
  ],
  "meshes": [
    {
      "name": "Object_0",
      "primitives": [
        {
          "attributes": {
            "NORMAL": 1,
            "POSITION": 0,
            "TEXCOORD_0": 2
          },
          "indices": 3,
          "material": 0,
          "mode": 4
        }
      ]
    },
    {
      "name": "Object_1",
      "primitives": [
        {
          "attributes": {
            "NORMAL": 5,
            "POSITION": 4
          },
          "indices": 6,
          "material": 1,
          "mode": 4
        }
      ]
    },
    {
      "name": "Object_2",
      "primitives": [
        {
          "attributes": {
            "NORMAL": 8,
            "POSITION": 7
          },
          "indices": 9,
          "material": 2,
          "mode": 4
        }
      ]
    },
    {
      "name": "Object_3",
      "primitives": [
        {
          "attributes": {
            "NORMAL": 11,
            "POSITION": 10
          },
          "indices": 12,
          "material": 1,
          "mode": 4
        }
      ]
    }
  ],
  "nodes": [
    {
      "children": [
        1
      ],
      "matrix": [
        1.0,
        0.0,
        0.0,
        0.0,
        0.0,
        2.220446049250313e-16,
        -1.0,
        0.0,
        0.0,
        1.0,
        2.220446049250313e-16,
        0.0,
        0.0,
        0.0,
        0.0,
        1.0
      ],
      "name": "Sketchfab_model"
    },
    {
      "children": [
        2
      ],
      "name": "root"
    },
    {
      "children": [
        3,
        7
      ],
      "matrix": [
        1.0,
        0.0,
        0.0,
        0.0,
        0.0,
        2.220446049250313e-16,
        1.0,
        0.0,
        0.0,
        -1.0,
        2.220446049250313e-16,
        0.0,
        0.0,
        0.0,
        0.0,
        1.0
      ],
      "name": "GLTF_SceneRootNode"
    },
    {
      "children": [
        4
      ],
      "matrix": [
        0.05667244270443916,
        0.0,
        0.0,
        0.0,
        0.0,
        0.05667244270443916,
        9.233112940876254e-09,
        0.0,
        0.0,
        -9.233112940876254e-09,
        0.05667244270443916,
        0.0,
        0.0063288770616054535,
        0.03101661428809166,
        0.004756534937769175,
        1.0
      ],
      "name": "_1"
    },
    {
      "children": [
        5,
        6
      ],
      "matrix": [
        0.02539999969303608,
        0.0,
        0.0,
        0.0,
        0.0,
        0.02539999969303608,
        0.0,
        0.0,
        0.0,
        0.0,
        0.02539999969303608,
        0.0,
        0.0,
        0.0,
        0.0,
        1.0
      ],
      "name": "Handle_0"
    },
    {
      "mesh": 0,
      "name": "Object_5"
    },
    {
      "mesh": 1,
      "name": "Object_6"
    },
    {
      "children": [
        8
      ],
      "matrix": [
        -2.898426255067469e-15,
        -2.7023524751257355e-08,
        0.05667244270443916,
        0.0,
        -6.755881631903549e-09,
        0.05667244270443916,
        2.7023524751257355e-08,
        0.0,
        -0.05667244270443916,
        -6.755881631903549e-09,
        -6.1198816535810475e-15,
        0.0,
        0.0057696145959198475,
        0.018569862470030785,
        -0.07728540152311325,
        1.0
      ],
      "name": "_3"
    },
    {
      "children": [
        9,
        10
      ],
      "matrix": [
        0.02539999969303608,
        0.0,
        0.0,
        0.0,
        0.0,
        0.02539999969303608,
        0.0,
        0.0,
        0.0,
        0.0,
        0.02539999969303608,
        0.0,
        0.0,
        0.0,
        0.0,
        1.0
      ],
      "name": "Blade_2"
    },
    {
      "mesh": 2,
      "name": "Object_9"
    },
    {
      "mesh": 3,
      "name": "Object_10"
    }
  ],
  "samplers": [
    {
      "magFilter": 9729,
      "minFilter": 9729,
      "wrapS": 10497,
      "wrapT": 10497
    },
    {
      "magFilter": 9729,
      "minFilter": 9987,
      "wrapS": 10497,
      "wrapT": 10497
    }
  ],
  "scene": 0,
  "scenes": [
    {
      "name": "Sketchfab_Scene",
      "nodes": [
        0
      ]
    }
  ],
  "textures": [
    {
      "sampler": 0,
      "source": 0
    },
    {
      "sampler": 1,
      "source": 1
    }
  ]
}
