{
  "accessors": [
    {
      "bufferView": 1,
      "componentType": 5126,
      "count": 80,
      "max": [
        3.343440532684326,
        22.92084503173828,
        203.96372985839844
      ],
      "min": [
        -3.388474464416504,
        -26.784456253051758,
        0.0
      ],
      "type": "VEC3"
    },
    {
      "bufferView": 1,
      "byteOffset": 960,
      "componentType": 5126,
      "count": 80,
      "max": [
        1.0,
        0.9999967217445374,
        1.0
      ],
      "min": [
        -1.0,
        -0.9999967217445374,
        -1.0
      ],
      "type": "VEC3"
    },
    {
      "bufferView": 0,
      "componentType": 5125,
      "count": 216,
      "type": "SCALAR"
    },
    {
      "bufferView": 1,
      "byteOffset": 1920,
      "componentType": 5126,
      "count": 336,
      "max": [
        16.944429397583008,
        15.015708923339844,
        4.085965633392334
      ],
      "min": [
        -18.53852081298828,
        -13.735662460327148,
        -4.085965633392334
      ],
      "type": "VEC3"
    },
    {
      "bufferView": 1,
      "byteOffset": 5952,
      "componentType": 5126,
      "count": 336,
      "max": [
        0.8254104852676392,
        0.8988265991210938,
        0.9978591203689575
      ],
      "min": [
        -0.9570457339286804,
        -0.9699873924255371,
        -0.9977782368659973
      ],
      "type": "VEC3"
    },
    {
      "bufferView": 0,
      "byteOffset": 864,
      "componentType": 5125,
      "count": 852,
      "type": "SCALAR"
    },
    {
      "bufferView": 1,
      "byteOffset": 9984,
      "componentType": 5126,
      "count": 228,
      "max": [
        63.205196380615234,
        30.108381271362305,
        16.1909236907959
      ],
      "min": [
        -14.519381523132324,
        -28.918380737304688,
        0.0
      ],
      "type": "VEC3"
    },
    {
      "bufferView": 1,
      "byteOffset": 12720,
      "componentType": 5126,
      "count": 228,
      "max": [
        1.0,
        1.0,
        1.0
      ],
      "min": [
        -1.0,
        -1.0,
        -1.0
      ],
      "type": "VEC3"
    },
    {
      "bufferView": 0,
      "byteOffset": 4272,
      "componentType": 5125,
      "count": 672,
      "type": "SCALAR"
    }
  ],
  "asset": {
    "extras": {
      "author": "fwild (https://sketchfab.com/fwild)",
      "license": "CC-BY-4.0 (http://creativecommons.org/licenses/by/4.0/)",
      "source": "https://sketchfab.com/3d-models/shovel-bzb23-02770a833fce494e86d91680136a2d95",
      "title": "Shovel bzb23"
    },
    "generator": "Sketchfab-15.26.0",
    "version": "2.0"
  },
  "bufferViews": [
    {
      "buffer": 0,
      "byteLength": 6960,
      "name": "floatBufferViews",
      "target": 34963
    },
    {
      "buffer": 0,
      "byteLength": 15456,
      "byteOffset": 6960,
      "byteStride": 12,
      "name": "floatBufferViews",
      "target": 34962
    }
  ],
  "buffers": [
    {
      "byteLength": 22416,
      "uri": "scene.bin"
    }
  ],
  "materials": [
    {
      "name": "Red_Metal",
      "pbrMetallicRoughness": {
        "baseColorFactor": [
          0.499505,
          0.00969633,
          0.00969633,
          1.0
        ],
        "metallicFactor": 0.35,
        "roughnessFactor": 0.19
      }
    },
    {
      "name": "Gray_Metal",
      "pbrMetallicRoughness": {
        "baseColorFactor": [
          0.0209511,
          0.0209511,
          0.0209511,
          1.0
        ],
        "metallicFactor": 0.55,
        "roughnessFactor": 0.21
      }
    }
  ],
  "meshes": [
    {
      "name": "Object_0",
      "primitives": [
        {
          "attributes": {
            "NORMAL": 1,
            "POSITION": 0
          },
          "indices": 2,
          "material": 0,
          "mode": 4
        }
      ]
    },
    {
      "name": "Object_1",
      "primitives": [
        {
          "attributes": {
            "NORMAL": 4,
            "POSITION": 3
          },
          "indices": 5,
          "material": 1,
          "mode": 4
        }
      ]
    },
    {
      "name": "Object_2",
      "primitives": [
        {
          "attributes": {
            "NORMAL": 7,
            "POSITION": 6
          },
          "indices": 8,
          "material": 1,
          "mode": 4
        }
      ]
    }
  ],
  "nodes": [
    {
      "children": [
        1
      ],
      "matrix": [
        1.0,
        0.0,
        0.0,
        0.0,
        0.0,
        2.220446049250313e-16,
        -1.0,
        0.0,
        0.0,
        1.0,
        2.220446049250313e-16,
        0.0,
        0.0,
        0.0,
        0.0,
        1.0
      ],
      "name": "Sketchfab_model"
    },
    {
      "children": [
        2
      ],
      "name": "root"
    },
    {
      "children": [
        3,
        6,
        9
      ],
      "matrix": [
        1.0,
        0.0,
        0.0,
        0.0,
        0.0,
        2.220446049250313e-16,
        1.0,
        0.0,
        0.0,
        -1.0,
        2.220446049250313e-16,
        0.0,
        0.0,
        0.0,
        0.0,
        1.0
      ],
      "name": "GLTF_SceneRootNode"
    },
    {
      "children": [
        4
      ],
      "matrix": [
        0.12158366292715073,
        -0.08922088146209717,
        0.0,
        0.0,
        0.0,
        0.0,
        -0.15080766379833221,
        0.0,
        0.08922088146209717,
        0.12158366292715073,
        0.0,
        0.0,
        -0.6295158863067627,
        0.11161220073699951,
        0.013055014424026012,
        1.0
      ],
      "name": "_1"
    },
    {
      "children": [
        5
      ],
      "matrix": [
        0.02539999969303608,
        0.0,
        0.0,
        0.0,
        0.0,
        0.02539999969303608,
        0.0,
        0.0,
        0.0,
        0.0,
        0.02539999969303608,
        0.0,
        0.0,
        0.0,
        0.0,
        1.0
      ],
      "name": "Handle_0"
    },
    {
      "mesh": 0,
      "name": "Object_5"
    },
    {
      "children": [
        7
      ],
      "matrix": [
        0.15080766379833221,
        0.0,
        0.0,
        0.0,
        0.0,
        0.15080766379833221,
        2.456968850594876e-08,
        0.0,
        0.0,
        -2.456968850594876e-08,
        0.15080766379833221,
        0.0,
        -0.669975221157074,
        0.07985110580921173,
        0.012711816467344761,
        1.0
      ],
      "name": "_3"
    },
    {
      "children": [
        8
      ],
      "matrix": [
        0.02539999969303608,
        0.0,
        0.0,
        0.0,
        0.0,
        0.02539999969303608,
        0.0,
        0.0,
        0.0,
        0.0,
        0.02539999969303608,
        0.0,
        0.0,
        0.0,
        0.0,
        1.0
      ],
      "name": "Connection_2"
    },
    {
      "mesh": 1,
      "name": "Object_8"
    },
    {
      "children": [
        10
      ],
      "matrix": [
        0.14965301752090454,
        0.01862592063844204,
        3.0345477242121888e-09,
        0.0,
        3.0345477242121888e-09,
        1.8811618929248652e-10,
        -0.15080766379833221,
        0.0,
        -0.01862592063844204,
        0.14965301752090454,
        -1.8811441293564712e-10,
        0.0,
        -0.8728824853897095,
        0.006944991648197174,
        0.015165789052844048,
        1.0
      ],
      "name": "_5"
    },
    {
      "children": [
        11
      ],
      "matrix": [
        0.02539999969303608,
        0.0,
        0.0,
        0.0,
        0.0,
        0.02539999969303608,
        0.0,
        0.0,
        0.0,
        0.0,
        0.02539999969303608,
        0.0,
        0.0,
        0.0,
        0.0,
        1.0
      ],
      "name": "Spoon_4"
    },
    {
      "mesh": 2,
      "name": "Object_11"
    }
  ],
  "scene": 0,
  "scenes": [
    {
      "name": "Sketchfab_Scene",
      "nodes": [
        0
      ]
    }
  ]
}
