{
  "accessors": [
    {
      "bufferView": 2,
      "componentType": 5126,
      "count": 698,
      "max": [
        -0.08999864757061005,
        -2.2400002479553223,
        2.4600000381469727
      ],
      "min": [
        -6.995356559753418,
        -8.517013549804688,
        -2.7755575615628914e-17
      ],
      "type": "VEC3"
    },
    {
      "bufferView": 2,
      "byteOffset": 8376,
      "componentType": 5126,
      "count": 698,
      "max": [
        1.0,
        1.0,
        1.0
      ],
      "min": [
        -1.0,
        -1.0,
        -1.0
      ],
      "type": "VEC3"
    },
    {
      "bufferView": 1,
      "componentType": 5126,
      "count": 698,
      "max": [
        121.06529998779297,
        9.586944580078125
      ],
      "min": [
        -120.06529998779297,
        -120.06529998779297
      ],
      "type": "VEC2"
    },
    {
      "bufferView": 0,
      "componentType": 5125,
      "count": 1104,
      "type": "SCALAR"
    },
    {
      "bufferView": 2,
      "byteOffset": 16752,
      "componentType": 5126,
      "count": 2880,
      "max": [
        1.1548399925231934e-07,
        1.1548399925231934e-07,
        1.2000000476837158
      ],
      "min": [
        -1.2399998903274536,
        -0.7399998903274536,
        0.21199999749660492
      ],
      "type": "VEC3"
    },
    {
      "bufferView": 2,
      "byteOffset": 51312,
      "componentType": 5126,
      "count": 2880,
      "max": [
        1.0,
        1.0,
        1.0
      ],
      "min": [
        -1.0,
        -1.0,
        -1.0
      ],
      "type": "VEC3"
    },
    {
      "bufferView": 1,
      "byteOffset": 5584,
      "componentType": 5126,
      "count": 2880,
      "max": [
        1.1169602870941162,
        0.9856072664260864
      ],
      "min": [
        -0.11696028709411621,
        0.0024515390396118164
      ],
      "type": "VEC2"
    },
    {
      "bufferView": 0,
      "byteOffset": 4416,
      "componentType": 5125,
      "count": 4320,
      "type": "SCALAR"
    },
    {
      "bufferView": 2,
      "byteOffset": 85872,
      "componentType": 5126,
      "count": 4783,
      "max": [
        3.1419874630955746e-06,
        2.340435258929574e-07,
        3.5000007152557373
      ],
      "min": [
        -6.990000247955322,
        -11.04366397857666,
        -0.19793210923671722
      ],
      "type": "VEC3"
    },
    {
      "bufferView": 2,
      "byteOffset": 143268,
      "componentType": 5126,
      "count": 4783,
      "max": [
        1.0,
        1.0,
        1.0
      ],
      "min": [
        -1.0,
        -1.0,
        -1.0
      ],
      "type": "VEC3"
    },
    {
      "bufferView": 1,
      "byteOffset": 28624,
      "componentType": 5126,
      "count": 4783,
      "max": [
        8.948371887207031,
        9.489999771118164
      ],
      "min": [
        -7.948373794555664,
        -7.948372840881348
      ],
      "type": "VEC2"
    },
    {
      "bufferView": 0,
      "byteOffset": 21696,
      "componentType": 5125,
      "count": 8157,
      "type": "SCALAR"
    },
    {
      "bufferView": 2,
      "byteOffset": 200664,
      "componentType": 5126,
      "count": 4,
      "max": [
        -4.550000190734863,
        -8.307014465332031,
        2.4000000953674316
      ],
      "min": [
        -5.440000057220459,
        -8.307014465332031,
        0.20000000298023224
      ],
      "type": "VEC3"
    },
    {
      "bufferView": 2,
      "byteOffset": 200712,
      "componentType": 5126,
      "count": 4,
      "max": [
        0.0,
        -1.0,
        0.0
      ],
      "min": [
        0.0,
        -1.0,
        0.0
      ],
      "type": "VEC3"
    },
    {
      "bufferView": 1,
      "byteOffset": 66888,
      "componentType": 5126,
      "count": 4,
      "max": [
        0.8112802505493164,
        0.9464285373687744
      ],
      "min": [
        0.18451976776123047,
        0.053571462631225586
      ],
      "type": "VEC2"
    },
    {
      "bufferView": 0,
      "byteOffset": 54324,
      "componentType": 5125,
      "count": 6,
      "type": "SCALAR"
    },
    {
      "bufferView": 2,
      "byteOffset": 200760,
      "componentType": 5126,
      "count": 81,
      "max": [
        -1.114999771118164,
        -0.13500018417835236,
        2.7100000381469727
      ],
      "min": [
        -5.875,
        -0.2350011020898819,
        0.20000001788139343
      ],
      "type": "VEC3"
    },
    {
      "bufferView": 2,
      "byteOffset": 201732,
      "componentType": 5126,
      "count": 81,
      "max": [
        1.0,
        1.0,
        1.0
      ],
      "min": [
        -1.0,
        -1.0,
        -1.0
      ],
      "type": "VEC3"
    },
    {
      "bufferView": 1,
      "byteOffset": 66920,
      "componentType": 5126,
      "count": 81,
      "max": [
        1.0,
        1.0
      ],
      "min": [
        -1.1920928955078125e-07,
        -1.1920928955078125e-07
      ],
      "type": "VEC2"
    },
    {
      "bufferView": 0,
      "byteOffset": 54348,
      "componentType": 5125,
      "count": 120,
      "type": "SCALAR"
    },
    {
      "bufferView": 2,
      "byteOffset": 202704,
      "componentType": 5126,
      "count": 8803,
      "max": [
        -4.226113319396973,
        -8.504921913146973,
        0.2100018709897995
      ],
      "min": [
        -5.758147239685059,
        -11.00037670135498,
        0.04951929301023483
      ],
      "type": "VEC3"
    },
    {
      "bufferView": 2,
      "byteOffset": 308340,
      "componentType": 5126,
      "count": 8803,
      "max": [
        1.0,
        1.0,
        0.999812662601471
      ],
      "min": [
        -1.0,
        -1.0,
        -0.9996753931045532
      ],
      "type": "VEC3"
    },
    {
      "bufferView": 1,
      "byteOffset": 67568,
      "componentType": 5126,
      "count": 8803,
      "max": [
        3.0247974395751953,
        2.9415950775146484
      ],
      "min": [
        -2.0248489379882813,
        -2.0248489379882813
      ],
      "type": "VEC2"
    },
    {
      "bufferView": 0,
      "byteOffset": 54828,
      "componentType": 5125,
      "count": 8808,
      "type": "SCALAR"
    },
    {
      "bufferView": 2,
      "byteOffset": 413976,
      "componentType": 5126,
      "count": 647,
      "max": [
        8.855654596118256e-05,
        0.0,
        2.950007200241089
      ],
      "min": [
        -6.989999771118164,
        -8.489999771118164,
        0.20000000298023224
      ],
      "type": "VEC3"
    },
    {
      "bufferView": 2,
      "byteOffset": 421740,
      "componentType": 5126,
      "count": 647,
      "max": [
        1.0,
        1.0,
        1.0
      ],
      "min": [
        -1.0,
        -1.0,
        -1.0
      ],
      "type": "VEC3"
    },
    {
      "bufferView": 3,
      "componentType": 5126,
      "count": 647,
      "max": [
        1.0,
        1.0,
        2.1225794625934213e-05,
        -1.0
      ],
      "min": [
        -1.0,
        -1.0,
        -2.9802318749716505e-05,
        -1.0
      ],
      "type": "VEC4"
    },
    {
      "bufferView": 1,
      "byteOffset": 137992,
      "componentType": 5126,
      "count": 647,
      "max": [
        11.899202346801758,
        1.4624358415603638
      ],
      "min": [
        -5.739202976226807,
        -1.9526629447937012
      ],
      "type": "VEC2"
    },
    {
      "bufferView": 1,
      "byteOffset": 143168,
      "componentType": 5126,
      "count": 647,
      "max": [
        11.899202346801758,
        1.4624358415603638
      ],
      "min": [
        -5.739202976226807,
        -1.9526629447937012
      ],
      "type": "VEC2"
    },
    {
      "bufferView": 0,
      "byteOffset": 90060,
      "componentType": 5125,
      "count": 906,
      "type": "SCALAR"
    }
  ],
  "asset": {
    "extras": {
      "author": "fwild (https://sketchfab.com/fwild)",
      "license": "CC-BY-4.0 (http://creativecommons.org/licenses/by/4.0/)",
      "source": "https://sketchfab.com/3d-models/doppelgarage-v5-low-res-bzb23-d20e3335ab8846dca180b02034c6c7f0",
      "title": "Doppelgarage v5 low res bzb23"
    },
    "generator": "Sketchfab-15.30.0",
    "version": "2.0"
  },
  "bufferViews": [
    {
      "buffer": 0,
      "byteLength": 93684,
      "name": "floatBufferViews",
      "target": 34963
    },
    {
      "buffer": 0,
      "byteLength": 148344,
      "byteOffset": 93684,
      "byteStride": 8,
      "name": "floatBufferViews",
      "target": 34962
    },
    {
      "buffer": 0,
      "byteLength": 429504,
      "byteOffset": 242028,
      "byteStride": 12,
      "name": "floatBufferViews",
      "target": 34962
    },
    {
      "buffer": 0,
      "byteLength": 10352,
      "byteOffset": 671532,
      "byteStride": 16,
      "name": "floatBufferViews",
      "target": 34962
    }
  ],
  "buffers": [
    {
      "byteLength": 681884,
      "uri": "scene.bin"
    }
  ],
  "extensionsUsed": [
    "KHR_materials_specular"
  ],
  "images": [
    {
      "uri": "textures/M_08___Default_baseColor.jpeg"
    },
    {
      "uri": "textures/M_08___Default_specularf0.png"
    },
    {
      "uri": "textures/M_09___Default_baseColor.jpeg"
    },
    {
      "uri": "textures/concrete_baseColor.jpeg"
    },
    {
      "uri": "textures/door_baseColor.jpeg"
    },
    {
      "uri": "textures/port_baseColor.jpeg"
    },
    {
      "uri": "textures/stone_baseColor.jpeg"
    },
    {
      "uri": "textures/wall_baseColor.jpeg"
    },
    {
      "uri": "textures/wall_normal.png"
    }
  ],
  "materials": [
    {
      "extensions": {
        "KHR_materials_specular": {
          "specularColorFactor": [
            1.0,
            1.0,
            1.0
          ],
          "specularFactor": 1.0,
          "specularTexture": {
            "index": 1
          }
        }
      },
      "name": "M_08___Default",
      "pbrMetallicRoughness": {
        "baseColorFactor": [
          0.5,
          0.5,
          0.5,
          1.0
        ],
        "baseColorTexture": {
          "index": 0
        },
        "metallicFactor": 0.0,
        "roughnessFactor": 0.0
      }
    },
    {
      "name": "M_09___Default",
      "pbrMetallicRoughness": {
        "baseColorFactor": [
          0.5,
          0.5,
          0.5,
          1.0
        ],
        "baseColorTexture": {
          "index": 2
        },
        "metallicFactor": 0.0,
        "roughnessFactor": 0.0
      }
    },
    {
      "name": "concrete",
      "pbrMetallicRoughness": {
        "baseColorFactor": [
          0.5,
          0.5,
          0.5,
          1.0
        ],
        "baseColorTexture": {
          "index": 3
        },
        "metallicFactor": 0.0,
        "roughnessFactor": 0.0
      }
    },
    {
      "name": "door",
      "pbrMetallicRoughness": {
        "baseColorFactor": [
          0.5,
          0.5,
          0.5,
          1.0
        ],
        "baseColorTexture": {
          "index": 4
        },
        "metallicFactor": 0.0,
        "roughnessFactor": 0.0
      }
    },
    {
      "name": "port",
      "pbrMetallicRoughness": {
        "baseColorFactor": [
          0.5,
          0.5,
          0.5,
          1.0
        ],
        "baseColorTexture": {
          "index": 5
        },
        "metallicFactor": 0.0,
        "roughnessFactor": 0.0
      }
    },
    {
      "name": "stone",
      "pbrMetallicRoughness": {
        "baseColorFactor": [
          0.5,
          0.5,
          0.5,
          1.0
        ],
        "baseColorTexture": {
          "index": 6
        },
        "metallicFactor": 0.0,
        "roughnessFactor": 0.0
      }
    },
    {
      "name": "wall",
      "normalTexture": {
        "index": 8,
        "scale": 0.0
      },
      "pbrMetallicRoughness": {
        "baseColorFactor": [
          0.5,
          0.5,
          0.5,
          1.0
        ],
        "baseColorTexture": {
          "index": 7
        },
        "metallicFactor": 0.0,
        "roughnessFactor": 0.0
      }
    }
  ],
  "meshes": [
    {
      "name": "Object_0",
      "primitives": [
        {
          "attributes": {
            "NORMAL": 1,
            "POSITION": 0,
            "TEXCOORD_0": 2
          },
          "indices": 3,
          "material": 0,
          "mode": 4
        }
      ]
    },
    {
      "name": "Object_1",
      "primitives": [
        {
          "attributes": {
            "NORMAL": 5,
            "POSITION": 4,
            "TEXCOORD_0": 6
          },
          "indices": 7,
          "material": 1,
          "mode": 4
        }
      ]
    },
    {
      "name": "Object_2",
      "primitives": [
        {
          "attributes": {
            "NORMAL": 9,
            "POSITION": 8,
            "TEXCOORD_0": 10
          },
          "indices": 11,
          "material": 2,
          "mode": 4
        }
      ]
    },
    {
      "name": "Object_3",
      "primitives": [
        {
          "attributes": {
            "NORMAL": 13,
            "POSITION": 12,
            "TEXCOORD_0": 14
          },
          "indices": 15,
          "material": 3,
          "mode": 4
        }
      ]
    },
    {
      "name": "Object_4",
      "primitives": [
        {
          "attributes": {
            "NORMAL": 17,
            "POSITION": 16,
            "TEXCOORD_0": 18
          },
          "indices": 19,
          "material": 4,
          "mode": 4
        }
      ]
    },
    {
      "name": "Object_5",
      "primitives": [
        {
          "attributes": {
            "NORMAL": 21,
            "POSITION": 20,
            "TEXCOORD_0": 22
          },
          "indices": 23,
          "material": 5,
          "mode": 4
        }
      ]
    },
    {
      "name": "Object_6",
      "primitives": [
        {
          "attributes": {
            "NORMAL": 25,
            "POSITION": 24,
            "TANGENT": 26,
            "TEXCOORD_0": 27,
            "TEXCOORD_1": 28
          },
          "indices": 29,
          "material": 6,
          "mode": 4
        }
      ]
    }
  ],
  "nodes": [
    {
      "children": [
        1
      ],
      "matrix": [
        1.0,
        0.0,
        0.0,
        0.0,
        0.0,
        2.220446049250313e-16,
        -1.0,
        0.0,
        0.0,
        1.0,
        2.220446049250313e-16,
        0.0,
        0.0,
        0.0,
        0.0,
        1.0
      ],
      "name": "Sketchfab_model"
    },
    {
      "children": [
        2
      ],
      "name": "root"
    },
    {
      "children": [
        3
      ],
      "matrix": [
        1.0,
        0.0,
        0.0,
        0.0,
        0.0,
        2.220446049250313e-16,
        1.0,
        0.0,
        0.0,
        -1.0,
        2.220446049250313e-16,
        0.0,
        0.0,
        0.0,
        0.0,
        1.0
      ],
      "name": "GLTF_SceneRootNode"
    },
    {
      "children": [
        4
      ],
      "matrix": [
        39.17703628540039,
        0.0,
        0.0,
        0.0,
        0.0,
        0.0,
        -39.17703628540039,
        0.0,
        0.0,
        39.17703628540039,
        0.0,
        0.0,
        3.276815176010132,
        -0.01221243292093277,
        -4.5359930992126465,
        1.0
      ],
      "name": "_1"
    },
    {
      "children": [
        5,
        6,
        7,
        8,
        9,
        10,
        11
      ],
      "matrix": [
        0.02539999969303608,
        0.0,
        0.0,
        0.0,
        0.0,
        0.02539999969303608,
        0.0,
        0.0,
        0.0,
        0.0,
        0.02539999969303608,
        0.0,
        0.0,
        0.0,
        0.0,
        1.0
      ],
      "name": "IfcBuildingElementProxy/BUILDINGELEMENTPROXY | Standard(1)_0"
    },
    {
      "mesh": 0,
      "name": "Object_5"
    },
    {
      "mesh": 1,
      "name": "Object_6"
    },
    {
      "mesh": 2,
      "name": "Object_7"
    },
    {
      "mesh": 3,
      "name": "Object_8"
    },
    {
      "mesh": 4,
      "name": "Object_9"
    },
    {
      "mesh": 5,
      "name": "Object_10"
    },
    {
      "mesh": 6,
      "name": "Object_11"
    }
  ],
  "samplers": [
    {
      "magFilter": 9729,
      "minFilter": 9729,
      "wrapS": 10497,
      "wrapT": 10497
    },
    {
      "magFilter": 9729,
      "minFilter": 9987,
      "wrapS": 10497,
      "wrapT": 10497
    }
  ],
  "scene": 0,
  "scenes": [
    {
      "name": "Sketchfab_Scene",
      "nodes": [
        0
      ]
    }
  ],
  "textures": [
    {
      "sampler": 0,
      "source": 0
    },
    {
      "sampler": 1,
      "source": 1
    },
    {
      "sampler": 0,
      "source": 2
    },
    {
      "sampler": 0,
      "source": 3
    },
    {
      "sampler": 0,
      "source": 4
    },
    {
      "sampler": 0,
      "source": 5
    },
    {
      "sampler": 0,
      "source": 6
    },
    {
      "sampler": 0,
      "source": 7
    },
    {
      "sampler": 0,
      "source": 8
    }
  ]
}
