{
  "accessors": [
    {
      "bufferView": 2,
      "componentType": 5126,
      "count": 598,
      "max": [
        6.0273895263671875,
        63.15943908691406,
        16.85424041748047
      ],
      "min": [
        -27.537296295166016,
        -60.22795867919922,
        -16.854238510131836
      ],
      "type": "VEC3"
    },
    {
      "bufferView": 2,
      "byteOffset": 7176,
      "componentType": 5126,
      "count": 598,
      "max": [
        0.9999405145645142,
        0.9969845414161682,
        0.9956749081611633
      ],
      "min": [
        -0.9829147458076477,
        -1.0,
        -0.9956747889518738
      ],
      "type": "VEC3"
    },
    {
      "bufferView": 1,
      "componentType": 5126,
      "count": 598,
      "max": [
        0.9910368919372559,
        1.0
      ],
      "min": [
        -0.013355672359466553,
        0.0012515783309936523
      ],
      "type": "VEC2"
    },
    {
      "bufferView": 0,
      "componentType": 5125,
      "count": 3060,
      "type": "SCALAR"
    },
    {
      "bufferView": 2,
      "byteOffset": 14352,
      "componentType": 5126,
      "count": 60,
      "max": [
        3.095440149307251,
        3.0178310871124268,
        3.8854000568389893
      ],
      "min": [
        -3.095440149307251,
        -3.0178310871124268,
        0.0
      ],
      "type": "VEC3"
    },
    {
      "bufferView": 2,
      "byteOffset": 15072,
      "componentType": 5126,
      "count": 60,
      "max": [
        1.0,
        0.9749280214309692,
        1.0
      ],
      "min": [
        -1.0,
        -0.9749279022216797,
        -1.0
      ],
      "type": "VEC3"
    },
    {
      "bufferView": 1,
      "byteOffset": 4784,
      "componentType": 5126,
      "count": 60,
      "max": [
        0.9874640703201294,
        1.0
      ],
      "min": [
        -0.03571432828903198,
        0.0
      ],
      "type": "VEC2"
    },
    {
      "bufferView": 0,
      "byteOffset": 12240,
      "componentType": 5125,
      "count": 168,
      "type": "SCALAR"
    },
    {
      "bufferView": 2,
      "byteOffset": 15792,
      "componentType": 5126,
      "count": 443,
      "max": [
        9.174057006835938,
        12.17120361328125,
        2.4405722618103027
      ],
      "min": [
        -14.211668968200684,
        -10.344898223876953,
        -2.456542730331421
      ],
      "type": "VEC3"
    },
    {
      "bufferView": 2,
      "byteOffset": 21108,
      "componentType": 5126,
      "count": 443,
      "max": [
        0.998766303062439,
        0.9999793171882629,
        0.9999987483024597
      ],
      "min": [
        -0.9999330639839172,
        -0.9999791383743286,
        -0.9999995231628418
      ],
      "type": "VEC3"
    },
    {
      "bufferView": 1,
      "byteOffset": 5264,
      "componentType": 5126,
      "count": 443,
      "max": [
        0.6737151741981506,
        0.6343116760253906
      ],
      "min": [
        0.3261716365814209,
        0.36507654190063477
      ],
      "type": "VEC2"
    },
    {
      "bufferView": 0,
      "byteOffset": 12912,
      "componentType": 5125,
      "count": 1476,
      "type": "SCALAR"
    },
    {
      "bufferView": 2,
      "byteOffset": 26424,
      "componentType": 5126,
      "count": 234,
      "max": [
        26.008684158325195,
        53.52202606201172,
        0.5000357627868652
      ],
      "min": [
        -28.39097785949707,
        -52.769168853759766,
        3.1441450119018555e-06
      ],
      "type": "VEC3"
    },
    {
      "bufferView": 2,
      "byteOffset": 29232,
      "componentType": 5126,
      "count": 234,
      "max": [
        0.9945617914199829,
        0.9966508746147156,
        0.9999996423721313
      ],
      "min": [
        -0.9943671226501465,
        -1.0,
        -0.9999996423721313
      ],
      "type": "VEC3"
    },
    {
      "bufferView": 1,
      "byteOffset": 8808,
      "componentType": 5126,
      "count": 234,
      "max": [
        0.0,
        1.0
      ],
      "min": [
        0.0,
        1.0
      ],
      "type": "VEC2"
    },
    {
      "bufferView": 1,
      "byteOffset": 10680,
      "componentType": 5126,
      "count": 234,
      "max": [
        1.0,
        1.0
      ],
      "min": [
        -5.960464477539063e-08,
        0.0
      ],
      "type": "VEC2"
    },
    {
      "bufferView": 0,
      "byteOffset": 18816,
      "componentType": 5125,
      "count": 720,
      "type": "SCALAR"
    }
  ],
  "asset": {
    "extras": {
      "author": "fwild (https://sketchfab.com/fwild)",
      "license": "CC-BY-4.0 (http://creativecommons.org/licenses/by/4.0/)",
      "source": "https://sketchfab.com/3d-models/masonry-trowel-bzb23-c6edf36b1a2d41a4ab1b6fd7e98b27b4",
      "title": "Masonry Trowel bzb23"
    },
    "generator": "Sketchfab-15.26.0",
    "version": "2.0"
  },
  "bufferViews": [
    {
      "buffer": 0,
      "byteLength": 21696,
      "name": "floatBufferViews",
      "target": 34963
    },
    {
      "buffer": 0,
      "byteLength": 12552,
      "byteOffset": 21696,
      "byteStride": 8,
      "name": "floatBufferViews",
      "target": 34962
    },
    {
      "buffer": 0,
      "byteLength": 32040,
      "byteOffset": 34248,
      "byteStride": 12,
      "name": "floatBufferViews",
      "target": 34962
    }
  ],
  "buffers": [
    {
      "byteLength": 66288,
      "uri": "scene.bin"
    }
  ],
  "extensionsUsed": [
    "KHR_materials_specular"
  ],
  "images": [
    {
      "uri": "textures/wood_baseColor.jpeg"
    },
    {
      "uri": "textures/wood_specularf0.png"
    },
    {
      "uri": "textures/oldMetal_baseColor.jpeg"
    }
  ],
  "materials": [
    {
      "extensions": {
        "KHR_materials_specular": {
          "specularColorFactor": [
            1.0,
            1.0,
            1.0
          ],
          "specularFactor": 1.0,
          "specularTexture": {
            "index": 1
          }
        }
      },
      "name": "wood",
      "pbrMetallicRoughness": {
        "baseColorFactor": [
          0.5,
          0.5,
          0.5,
          1.0
        ],
        "baseColorTexture": {
          "index": 0
        },
        "metallicFactor": 0.0,
        "roughnessFactor": 0.0
      }
    },
    {
      "name": "oldMetal",
      "pbrMetallicRoughness": {
        "baseColorFactor": [
          0.5,
          0.5,
          0.5,
          1.0
        ],
        "baseColorTexture": {
          "index": 2
        },
        "metallicFactor": 0.57,
        "roughnessFactor": 0.91
      }
    }
  ],
  "meshes": [
    {
      "name": "Object_0",
      "primitives": [
        {
          "attributes": {
            "NORMAL": 1,
            "POSITION": 0,
            "TEXCOORD_0": 2
          },
          "indices": 3,
          "material": 0,
          "mode": 4
        }
      ]
    },
    {
      "name": "Object_1",
      "primitives": [
        {
          "attributes": {
            "NORMAL": 5,
            "POSITION": 4,
            "TEXCOORD_0": 6
          },
          "indices": 7,
          "material": 1,
          "mode": 4
        }
      ]
    },
    {
      "name": "Object_2",
      "primitives": [
        {
          "attributes": {
            "NORMAL": 9,
            "POSITION": 8,
            "TEXCOORD_0": 10
          },
          "indices": 11,
          "material": 1,
          "mode": 4
        }
      ]
    },
    {
      "name": "Object_3",
      "primitives": [
        {
          "attributes": {
            "NORMAL": 13,
            "POSITION": 12,
            "TEXCOORD_0": 14,
            "TEXCOORD_1": 15
          },
          "indices": 16,
          "material": 1,
          "mode": 4
        }
      ]
    }
  ],
  "nodes": [
    {
      "children": [
        1
      ],
      "matrix": [
        1.0,
        0.0,
        0.0,
        0.0,
        0.0,
        2.220446049250313e-16,
        -1.0,
        0.0,
        0.0,
        1.0,
        2.220446049250313e-16,
        0.0,
        0.0,
        0.0,
        0.0,
        1.0
      ],
      "name": "Sketchfab_model"
    },
    {
      "children": [
        2
      ],
      "name": "root"
    },
    {
      "children": [
        3,
        6,
        9,
        12
      ],
      "matrix": [
        1.0,
        0.0,
        0.0,
        0.0,
        0.0,
        2.220446049250313e-16,
        1.0,
        0.0,
        0.0,
        -1.0,
        2.220446049250313e-16,
        0.0,
        0.0,
        0.0,
        0.0,
        1.0
      ],
      "name": "GLTF_SceneRootNode"
    },
    {
      "children": [
        4
      ],
      "matrix": [
        -1.454672049483463e-09,
        1.9708866483281184e-10,
        0.028140833601355553,
        0.0,
        0.02685667760670185,
        0.00840388797223568,
        1.0642389192128121e-09,
        0.0,
        -0.008403887040913105,
        0.026856679469347,
        -1.6802238766988609e-10,
        0.0,
        0.14444518089294434,
        0.08010230213403702,
        0.006604125257581472,
        1.0
      ],
      "name": "_1"
    },
    {
      "children": [
        5
      ],
      "matrix": [
        0.02539999969303608,
        0.0,
        0.0,
        0.0,
        0.0,
        0.02539999969303608,
        0.0,
        0.0,
        0.0,
        0.0,
        0.02539999969303608,
        0.0,
        0.0,
        0.0,
        0.0,
        1.0
      ],
      "name": "Handle_0"
    },
    {
      "mesh": 0,
      "name": "Object_5"
    },
    {
      "children": [
        7
      ],
      "matrix": [
        -4.594804092761251e-09,
        7.35168648180462e-10,
        0.08885539323091507,
        0.0,
        -0.025733284652233124,
        0.08504750579595566,
        -6.072646274724036e-10,
        0.0,
        -0.08504750579595566,
        -0.02573329024016857,
        -3.3341085448057584e-09,
        0.0,
        0.1031576544046402,
        0.06715304404497147,
        -0.0008349413983523846,
        1.0
      ],
      "name": "_3"
    },
    {
      "children": [
        8
      ],
      "matrix": [
        0.02539999969303608,
        0.0,
        0.0,
        0.0,
        0.0,
        0.02539999969303608,
        0.0,
        0.0,
        0.0,
        0.0,
        0.02539999969303608,
        0.0,
        0.0,
        0.0,
        0.0,
        1.0
      ],
      "name": "HandleRing_2"
    },
    {
      "mesh": 1,
      "name": "Object_8"
    },
    {
      "children": [
        10
      ],
      "matrix": [
        0.06991361081600189,
        -5.862443863691169e-09,
        0.0004886580281890929,
        0.0,
        1.0259276983504151e-08,
        0.06991532444953918,
        -6.091713244948949e-10,
        0.0,
        -0.0004886590177193284,
        1.5114113294245612e-09,
        0.06991361826658249,
        0.0,
        0.08586674183607101,
        0.04629669338464737,
        -0.0008498770766891539,
        1.0
      ],
      "name": "_5"
    },
    {
      "children": [
        11
      ],
      "matrix": [
        0.02539999969303608,
        0.0,
        0.0,
        0.0,
        0.0,
        0.02539999969303608,
        0.0,
        0.0,
        0.0,
        0.0,
        0.02539999969303608,
        0.0,
        0.0,
        0.0,
        0.0,
        1.0
      ],
      "name": "HandleConnection_4"
    },
    {
      "mesh": 2,
      "name": "Object_11"
    },
    {
      "children": [
        13
      ],
      "matrix": [
        -2.735760062932968e-09,
        1.1888712236896026e-08,
        0.06991532444953918,
        0.0,
        0.06991531699895859,
        2.7314146677781537e-07,
        1.6880221664905548e-09,
        0.0,
        -2.687550306745834e-07,
        0.06991532444953918,
        -1.10274900322338e-08,
        0.0,
        0.004231803119182587,
        0.02781032770872116,
        0.0009987606899812818,
        1.0
      ],
      "name": "_7"
    },
    {
      "children": [
        14
      ],
      "matrix": [
        0.02539999969303608,
        0.0,
        0.0,
        0.0,
        0.0,
        0.02539999969303608,
        0.0,
        0.0,
        0.0,
        0.0,
        0.02539999969303608,
        0.0,
        0.0,
        0.0,
        0.0,
        1.0
      ],
      "name": "Plate_6"
    },
    {
      "mesh": 3,
      "name": "Object_14"
    }
  ],
  "samplers": [
    {
      "magFilter": 9729,
      "minFilter": 9729,
      "wrapS": 10497,
      "wrapT": 10497
    },
    {
      "magFilter": 9729,
      "minFilter": 9987,
      "wrapS": 10497,
      "wrapT": 10497
    }
  ],
  "scene": 0,
  "scenes": [
    {
      "name": "Sketchfab_Scene",
      "nodes": [
        0
      ]
    }
  ],
  "textures": [
    {
      "sampler": 0,
      "source": 0
    },
    {
      "sampler": 1,
      "source": 1
    },
    {
      "sampler": 0,
      "source": 2
    }
  ]
}
